<?xml version="1.0" encoding="UTF-8" standalone="no"?>
<svg
   xmlns:dc="http://purl.org/dc/elements/1.1/"
   xmlns:cc="http://creativecommons.org/ns#"
   xmlns:rdf="http://www.w3.org/1999/02/22-rdf-syntax-ns#"
   xmlns:svg="http://www.w3.org/2000/svg"
   xmlns="http://www.w3.org/2000/svg"
   xmlns:sodipodi="http://sodipodi.sourceforge.net/DTD/sodipodi-0.dtd"
   xmlns:inkscape="http://www.inkscape.org/namespaces/inkscape"
   version="1.1"
   id="svg2"
   xml:space="preserve"
   width="4266.6665"
   height="2400"
   viewBox="0 0 4266.6665 2400"
   sodipodi:docname="1122.eps"><metadata
     id="metadata8"><rdf:RDF><cc:Work
         rdf:about=""><dc:format>image/svg+xml</dc:format><dc:type
           rdf:resource="http://purl.org/dc/dcmitype/StillImage" /></cc:Work></rdf:RDF></metadata><defs
     id="defs6"><clipPath
       clipPathUnits="userSpaceOnUse"
       id="clipPath240"><path
         d="m 3682.5,1188.4 c -19.21,0 -38.49,0.6 -57.87,1.9 -36.06,2.6 -56.03,6.3 -71.07,14.9 -7.47,4.3 -14.14,10.6 -15.83,15.2 -2.09,5.8 12.14,13.8 1.37,19 -6.13,3 -19.46,4.2 -33.02,4.2 -5.26,0 -10.55,-0.1 -15.47,-0.5 -17.6,-1.2 -33.36,-3.9 -51.19,-4.9 -4.28,-0.2 -8.59,-0.3 -12.87,-0.3 -41.94,0 -81.39,10.9 -74,21.7 -3.25,-0.3 -6.59,-0.5 -9.93,-0.5 -16.32,0 -32.36,3.9 -34.69,8.3 -2.8,5.2 9.04,10.4 24.13,14 11.43,2.8 26.44,6.4 19.93,10.1 -2.17,1.2 -6.47,2.1 -10.57,2.9 -19.27,4 -39.57,9.8 -32.2,15.9 2.68,2.2 8.74,4 14.66,5.7 20.94,6.2 64.53,13.7 59.2,22.7 -41.76,1.6 -48.72,18.2 -18.85,25.8 29.85,7.6 76.18,8.6 118.33,9.1 -0.11,0 -0.23,0 -0.35,0 -27.72,0 -25.31,40.8 11.33,42.5 39.61,1.8 79.23,3.6 118.84,5.4 10.58,0.5 21.79,1 29.66,2.9 19.47,4.7 5.34,13.1 12.2,19.7 9.74,9.3 48.84,12.2 90.63,12.2 37.74,0 77.67,-2.3 100.23,-4.3 67.3,-5.9 105.75,-10.4 155.49,-12.1 13.73,-0.4 28.33,-0.7 44.63,-0.7 15.89,0 33.41,0.2 53.33,0.7 3.63,0.1 7.34,0.2 11.07,0.2 30.85,0 63.74,-3.2 73.96,-10.4 10.81,-7.7 -11.99,-19.2 11.08,-25.9 10.51,-3 26.74,-3.8 43.99,-3.8 17.99,0 37.08,0.8 51.91,1 2.3,0 4.61,0 6.92,0 5.04,0 10.07,-0.1 14.79,-0.5 8.16,-0.7 14.54,-2.4 20.64,-3.9 15.12,-3.9 31.18,-8.4 32.25,-13.9 0.67,-3.3 -4.57,-6.6 -7.31,-9.9 -12.89,-15.6 42.87,-31.9 103.85,-31.9 4.51,0 9.05,0 13.59,0.2 10.78,-6.1 21.71,-12.3 24.13,-19 2.44,-6.7 -5.12,-14 -25.62,-18.2 -11.52,-2.3 -26.54,-3.6 -35.52,-6.6 -19.9,-6.6 1.69,-15.8 4.51,-24.2 3.82,-11.2 -35.81,-22 -79.51,-22 -1.2,0 -2.4,0 -3.6,0 -11.4,0.2 -22.68,0.9 -34.04,0.9 -1.54,0 -3.08,0 -4.62,0 -30.29,-0.7 -51.69,-7.8 -64.92,-14.9 -23.37,-12.4 -63.6,-31.8 -112.11,-38.8 -17.94,-2.5 -37.21,-3.4 -57.21,-3.4 -40.52,0 -84.02,3.7 -125.49,4.5 -6.78,0.2 -13.55,0.2 -20.3,0.2 -43.55,0 -86.55,-2.8 -129.48,-5.6 -42.94,-2.8 -85.81,-5.6 -129.01,-5.6"
         id="path238" /></clipPath></defs><sodipodi:namedview
     pagecolor="#ffffff"
     bordercolor="#666666"
     borderopacity="1"
     objecttolerance="10"
     gridtolerance="10"
     guidetolerance="10"
     inkscape:pageopacity="0"
     inkscape:pageshadow="2"
     inkscape:window-width="640"
     inkscape:window-height="480"
     id="namedview4" /><g
     id="g10"
     inkscape:groupmode="layer"
     inkscape:label="ink_ext_XXXXXX"
     transform="matrix(1.3333333,0,0,-1.3333333,0,2400)"><g
       id="g12"
       transform="scale(0.1)"><path
         d="M 16000,0 H 32000 V 18000 H 16000 Z"
         style="fill:#ffffff;fill-opacity:1;fill-rule:nonzero;stroke:none"
         id="path14" /><path
         d="M 26188.5,449.602 22115,721.301 c -182.8,12.199 -321.1,189.898 -307.5,394.799 279.1,2194.2 587.4,4458.4 363.9,5453.4 13.7,205 174.4,362.6 357.2,350.5 l 4073.5,-271.8 c 182.8,-12.2 265.8,-17.3 360.2,-304.2 255.4,-743.3 -159.9,-3339.7 -416.6,-5544 -13.7,-205 -174.4,-362.598 -357.2,-350.398"
         style="fill:#858889;fill-opacity:1;fill-rule:nonzero;stroke:none"
         id="path16" /><path
         d="m 25916.6,449.602 -4073.5,271.699 c -182.8,12.199 -321.2,189.898 -307.5,394.799 279,2194.2 587.4,4458.4 363.9,5453.4 13.7,205 174.4,362.6 357.2,350.5 l 4073.5,-271.8 c 182.7,-12.2 265.8,-17.3 360.2,-304.2 255.3,-743.3 -159.9,-3339.7 -416.6,-5544 -13.7,-205 -174.4,-362.598 -357.2,-350.398"
         style="fill:#e0e0e0;fill-opacity:1;fill-rule:nonzero;stroke:none"
         id="path18" /><path
         d="M 25857.2,442.402 21783.7,714.203 C 21600.9,726.402 21462.6,904 21476.3,1109 c 279,2194.2 587.4,4458.4 363.8,5453.4 13.7,204.9 174.4,362.6 357.2,350.4 L 26270.8,6641 c 182.8,-12.2 265.8,-17.3 360.2,-304.2 255.4,-743.3 -159.8,-3339.7 -416.6,-5543.999 -13.7,-204.899 -174.4,-362.602 -357.2,-350.399"
         style="fill:#b7b7b7;fill-opacity:1;fill-rule:nonzero;stroke:none"
         id="path20" /><path
         d="m 21821.3,4009.2 v 0 c 86.2,897.3 126.3,1684.6 68.4,2238 0,0 0,0 0,0.1 57.9,-553.5 17.8,-1340.8 -68.4,-2238.1"
         style="fill:#bebec0;fill-opacity:1;fill-rule:nonzero;stroke:none"
         id="path22" /><path
         d="m 26405.6,6625.6 v 0 0 m -0.7,0.1 h -0.1 0.1 m -0.6,0.2 c -0.1,0 -0.2,0 -0.3,0 0.1,0 0.2,0 0.3,0 m -0.8,0.1 c -0.1,0.1 -0.2,0.1 -0.3,0.1 0.1,0 0.2,0 0.3,-0.1 m -0.8,0.2 c -0.1,0 -0.2,0.1 -0.3,0.1 0.1,0 0.2,-0.1 0.3,-0.1 m -0.8,0.2 c -0.1,0 -0.2,0 -0.3,0.1 0.1,-0.1 0.2,-0.1 0.3,-0.1 m -0.7,0.2 c -0.1,0 -0.3,0 -0.4,0 0.1,0 0.2,0 0.4,0 m -0.8,0.1 c -0.1,0.1 -0.2,0.1 -0.4,0.1 0.1,0 0.3,0 0.4,-0.1 m -0.8,0.2 c -0.1,0 -0.3,0.1 -0.4,0.1 0.1,0 0.3,-0.1 0.4,-0.1 m -0.7,0.2 c -0.2,0 -0.3,0 -0.5,0.1 0.2,-0.1 0.3,-0.1 0.5,-0.1 m -0.8,0.1 c -0.2,0.1 -0.4,0.1 -0.6,0.1 0.2,0 0.4,0 0.6,-0.1 m -0.8,0.2 c -0.2,0 -0.4,0.1 -0.6,0.1 0.2,0 0.4,-0.1 0.6,-0.1 m -0.8,0.2 c -0.2,0 -0.4,0 -0.6,0.1 0.2,-0.1 0.4,-0.1 0.6,-0.1 m -0.7,0.1 c -0.3,0.1 -0.5,0.1 -0.7,0.1 0.2,0 0.4,0 0.7,-0.1 m -0.8,0.2 c -0.3,0 -0.5,0.1 -0.7,0.1 0.2,0 0.4,-0.1 0.7,-0.1 m -0.8,0.1 c -0.3,0.1 -0.5,0.1 -0.8,0.2 0.3,-0.1 0.5,-0.1 0.8,-0.2 m -0.8,0.2 c -35.6,7 -75.8,9.7 -122.6,12.8 46.8,-3.1 87,-5.8 122.6,-12.8"
         style="fill:#a8a9aa;fill-opacity:1;fill-rule:nonzero;stroke:none"
         id="path24" /><path
         d="m 25694.5,2566.9 h -3795.4 c -39.6,530.7 -64,952.3 -77.8,1442.3 86.2,897.3 126.3,1684.6 68.4,2238.1 16,115.9 33.2,211.4 50.7,266.3 38.3,119.4 61.3,245.2 88.5,360.3 45.3,25.2 95.9,39.5 148.8,39.5 6.5,0 13,-0.2 19.6,-0.6 L 26270.8,6641 v 0 c 46.8,-3.1 87,-5.8 122.6,-12.8 v 0 c 0.3,-0.1 0.5,-0.1 0.8,-0.2 0,0 0,0 0.1,0 0.2,0 0.4,-0.1 0.7,-0.1 0,0 0.1,0 0.1,-0.1 0.2,0 0.4,0 0.7,-0.1 h 0.1 c 0.2,-0.1 0.4,-0.1 0.6,-0.1 0.1,-0.1 0.2,-0.1 0.2,-0.1 0.2,0 0.4,-0.1 0.6,-0.1 0.1,0 0.2,0 0.2,-0.1 0.2,0 0.4,0 0.6,-0.1 0.1,0 0.2,0 0.3,0 0.2,-0.1 0.3,-0.1 0.5,-0.1 0.1,-0.1 0.2,-0.1 0.3,-0.1 0.1,0 0.3,-0.1 0.4,-0.1 0.2,0 0.3,-0.1 0.4,-0.1 0.2,0 0.3,0 0.4,-0.1 0.1,0 0.3,0 0.4,-0.1 0.1,0 0.3,0 0.4,0 0.1,-0.1 0.3,-0.1 0.4,-0.1 0.1,-0.1 0.2,-0.1 0.3,-0.1 0.2,0 0.3,-0.1 0.5,-0.1 0.1,0 0.2,-0.1 0.3,-0.1 0.2,0 0.3,-0.1 0.5,-0.1 0.1,0 0.2,0 0.3,-0.1 0.1,0 0.3,0 0.5,-0.1 0.1,0 0.2,0 0.3,0 0.1,-0.1 0.3,-0.1 0.5,-0.2 h 0.1 c 0.2,0 0.5,-0.1 0.7,-0.1 v 0 c 92.1,-21.7 152.5,-78.5 216.5,-262.3 -195.1,-137.9 -383.5,-251.8 -559.3,-353.9 -66.2,-974 -326.5,-2382 -368.3,-3442.5"
         style="fill:#8c8c8d;fill-opacity:1;fill-rule:nonzero;stroke:none"
         id="path26" /><path
         d="M 0,0 H 16000 V 18000 H 0 Z"
         style="fill:#cad6db;fill-opacity:1;fill-rule:nonzero;stroke:none"
         id="path28" /><path
         d="m 5695.45,487.5 4081.42,96.301 C 9960,588.199 10105.9,759.699 10101,965 c -184.36,2204.2 -395.06,4479.6 -128.94,5464 -4.85,205.4 -158.64,369.8 -341.77,365.5 l -4081.43,-96.3 c -183.13,-4.4 -266.33,-5.9 -373,-288.5 -287.06,-731.6 16.1,-3343.4 177.82,-5556.7 4.84,-205.398 158.64,-369.801 341.77,-365.5"
         style="fill:#858889;fill-opacity:1;fill-rule:nonzero;stroke:none"
         id="path30" /><path
         d="m 5967.12,475.801 4081.38,96.301 c 183.2,4.398 329,175.898 324.2,381.199 -184.4,2204.199 -395.09,4479.599 -129,5463.999 -4.8,205.4 -158.6,369.8 -341.74,365.5 l -4081.43,-96.3 c -183.13,-4.4 -266.33,-5.9 -373,-288.5 -287.06,-731.6 16.1,-3343.4 177.81,-5556.699 4.85,-205.399 158.65,-369.801 341.78,-365.5"
         style="fill:#e0e0e0;fill-opacity:1;fill-rule:nonzero;stroke:none"
         id="path32" /><path
         d="m 6026.11,466.102 4081.39,96.3 c 183.2,4.301 329,175.899 324.2,381.2 -184.4,2204.198 -395.1,4479.598 -129,5463.998 -4.8,205.4 -158.6,369.8 -341.75,365.5 l -4081.42,-96.3 c -183.13,-4.4 -266.34,-5.9 -373,-288.5 -287.06,-731.6 16.1,-3343.4 177.81,-5556.698 4.84,-205.403 158.64,-369.801 341.77,-365.5"
         style="fill:#b7b7b7;fill-opacity:1;fill-rule:nonzero;stroke:none"
         id="path34" /><path
         d="M 0,0 H 32000 V 2566.9 H 0 Z"
         style="fill:#8e6052;fill-opacity:1;fill-rule:nonzero;stroke:none"
         id="path36" /><path
         d="M 0,0 H 16000 V 2566.9 H 0 Z"
         style="fill:#7a4e43;fill-opacity:1;fill-rule:nonzero;stroke:none"
         id="path38" /><path
         d="m 27982.6,11718.8 c 100,240.2 311.2,282.4 677.2,119.2 304,-135.6 375.8,-319.6 313.5,-602.1 -928.9,-4212.9 -2749.6,-4690.1 -3683.5,-5312.7 -375.9,-399.7 -824.9,1089.4 -520.1,1537.9 2183.3,1005.44 2464.9,1639.17 3212.9,4257.7"
         style="fill:#1c75bc;fill-opacity:1;fill-rule:nonzero;stroke:none"
         id="path40" /><path
         d="m 28085,13505.9 c -149.8,-154.3 -255.8,-326 -277.1,-542.8 -31.1,-317.6 146.2,-639.8 372.6,-860.2 110.6,-107.7 243.3,-201.6 393.3,-251.2 152.3,-50.4 307.3,-130.2 454.3,-20.7 78.8,58.7 129.6,144.9 173.7,230.8 84.7,165.1 152.4,338.2 201.9,516.1 32.2,115.9 55.1,246 -6,350.8 -18.1,31 -43.1,58.5 -56.4,91.7 -16.3,40.3 -14,85.1 -23.6,127.3 -25.6,113.2 -146.9,198.5 -266.9,187.7 -17.8,161.8 -187.7,293.2 -355.9,275.4 -46.9,93.7 -171.6,133 -277.7,112.7 -106.1,-20.2 -195.9,-87.2 -273.4,-159.8 -20.2,-19 -39.9,-38.3 -58.8,-57.8"
         style="fill:#f9bc8f;fill-opacity:1;fill-rule:nonzero;stroke:none"
         id="path42" /><path
         d="m 27890.3,13230.1 c 36,-4.3 71.5,-14.5 104,-29.3 83.2,-38.1 150,-102.4 211.4,-168.5 44.1,-47.4 87.3,-97.9 108.4,-158.2 21,-60.3 15.9,-132.9 -28.8,-179.7 -48.8,-51.2 -130,-59.2 -201.6,-50.3 40.6,-19.9 67.6,-63.1 66.7,-106.9 -2.9,-130.3 -186,-202.3 -290.9,-134.2 -110.6,71.9 -253.8,248.8 -277.1,387.7 -22.3,133.7 18,334.6 146.6,409.8 48.1,28.1 105.2,36.1 161.3,29.6"
         style="fill:#f9bc8f;fill-opacity:1;fill-rule:nonzero;stroke:none"
         id="path44" /><path
         d="m 28067.7,11867.6 -57.2,-228.1 c 0,0 117,-472.6 870.6,-300.1 l 23.6,85.4 c -473.3,-30.2 -764.8,339.1 -837,442.8"
         style="fill:#cc8862;fill-opacity:1;fill-rule:nonzero;stroke:none"
         id="path46" /><path
         d="m 28211.3,12440.3 -143.6,-572.7 c 72.2,-103.7 363.7,-473 837,-442.8 l 188.9,682.8 -882.3,332.7"
         style="fill:#f9bc8f;fill-opacity:1;fill-rule:nonzero;stroke:none"
         id="path48" /><path
         d="m 28412.9,12451.3 c 12.1,-51.4 19.5,-104.6 42.1,-152.6 52.2,-110.5 181.2,-175.7 307.4,-178.6 126.2,-2.9 248.3,48.1 351.2,118.3 71.2,48.6 136.3,121 154.8,204.6 12.8,57.9 12.4,118 27.2,175.4 -25.5,-61.6 -108.2,-80.4 -150.8,-132.6 -2.6,-3.1 -5.1,-6.9 -4,-10.8 8.9,-33.2 69.4,-18.9 71.1,-54.3 1.3,-25 -49.3,-59.7 -67.7,-71.4 -59.6,-37.9 -138.7,-48.6 -208.8,-43.5 -60.8,4.4 -126.9,21 -161.6,69.3 -30.2,42.1 -28.7,99.4 -9.4,147.1 19.3,47.6 54,87.8 88.1,127.1 59.8,68.8 119.5,137.6 179.3,206.4 -73.7,-84.8 -240.3,-113.6 -295.6,-210.9 -6.5,-11.5 -10.1,-24.3 -16,-36 -17.2,-34.5 -55,-58.3 -94.8,-60.6 -39.7,-2.4 -79.8,16.4 -103.3,47.3 -16.2,21.4 -24.4,47.4 -30.6,73.3 -51.4,212.8 126.6,300.6 252.2,443.9 7.8,8.9 15.7,21 10.1,31.4 -8.7,16.2 -34.4,6 -48.8,-6 -86.9,-72.1 -252.4,-299.9 -384.9,-271.5 -39.7,8.5 -73.5,34.2 -99,64.6 -22.8,27 -40.5,59.9 -40,94.7 0.5,37.4 21.8,71.5 43.6,102.5 39.3,56 82.6,109.3 129.5,159.5 22.4,24.1 47,50.2 49,82.4 -23.5,1.2 -43.6,-15.1 -60.7,-30.7 -60.7,-55.2 -121.6,-112.9 -169.4,-178.5 -37.4,-51.3 -74.3,-91.1 -145.9,-46.2 -26.4,16.6 -46.9,40.4 -66.9,63.8 -28.4,-36.8 -29,-88.5 -11.7,-131.2 44.9,-111.2 191.7,-144.7 272.2,-232.4 93.8,-102 160.7,-231.2 192.1,-363.8"
         style="fill:#cc8862;fill-opacity:1;fill-rule:nonzero;stroke:none"
         id="path50" /><path
         d="m 28227.6,12703.5 c -37.8,78.9 -75.6,157.8 -113.4,236.8 24.9,-5.4 47,-19.1 68,-33.2 72.2,-48.5 139.4,-106 187.5,-177 48.1,-70.9 76.1,-156.6 66.4,-240.8 -6.4,-55.2 -30.5,-110.6 -76.2,-144.6 -60.6,-45.2 -328.4,-40.6 -255,55.3 34,44.4 106.7,51.3 140.2,102 42.8,65 12.9,138.1 -17.5,201.5"
         style="fill:#cc8862;fill-opacity:1;fill-rule:nonzero;stroke:none"
         id="path52" /><path
         d="m 19755.2,11832.4 c -93.4,242.9 -303.4,290.7 -673.7,137.5 -307.5,-127.3 -384.4,-309.2 -329.7,-593.4 814.5,-4236.4 2621.7,-4762.8 3538.4,-5410.4 364.9,-409.8 909.3,1110.7 616.8,1567.3 -2155.3,1064.15 -2475,1661.2 -3151.8,4299"
         style="fill:#1c75bc;fill-opacity:1;fill-rule:nonzero;stroke:none"
         id="path54" /><path
         d="m 19701.2,13621.7 c 145.6,-158.3 246.9,-332.9 262.3,-550.1 22.6,-318.4 -163.4,-635.6 -395.7,-849.9 -113.5,-104.6 -248.7,-194.9 -400,-240.4 -153.6,-46.3 -310.7,-121.9 -454.7,-8.4 -77.2,60.8 -125.6,148.3 -167.3,235.4 -80.2,167.3 -143.3,342.2 -187.9,521.3 -29.1,116.8 -48.4,247.5 15.5,350.5 18.9,30.6 44.6,57.4 58.9,90.2 17.3,39.8 16.3,84.7 27,126.6 28.6,112.5 152.2,194.5 271.9,180.5 22.2,161.2 195.5,287.9 363.2,265.6 49.4,92.4 175.1,128.3 280.6,105.2 105.6,-23.1 193.6,-92.5 269,-167.2 19.7,-19.6 38.8,-39.3 57.2,-59.3"
         style="fill:#f9bc8f;fill-opacity:1;fill-rule:nonzero;stroke:none"
         id="path56" /><path
         d="m 19888.4,13340.6 c -36.1,-3.2 -71.9,-12.5 -104.8,-26.4 -84.2,-35.8 -152.7,-98.3 -215.8,-162.7 -45.4,-46.2 -89.9,-95.6 -112.6,-155.2 -22.7,-59.7 -19.6,-132.4 23.9,-180.5 47.4,-52.4 128.3,-62.6 200.1,-55.7 -41.1,-18.7 -69.3,-61.2 -69.5,-105 -0.7,-130.4 180.4,-207.3 287.1,-142 112.5,68.8 260.5,241.8 287.5,380 25.9,133.1 -8.9,335 -135.5,413.6 -47.2,29.4 -104.1,39 -160.4,33.9"
         style="fill:#f9bc8f;fill-opacity:1;fill-rule:nonzero;stroke:none"
         id="path58" /><path
         d="m 18825.9,11561.5 20.8,-84 c 748.8,-192.8 878.5,276.4 878.5,276.4 l -51.6,232.4 c -287.2,-367.8 -719.3,-418.1 -847.7,-424.8"
         style="fill:#cc8862;fill-opacity:1;fill-rule:nonzero;stroke:none"
         id="path60" /><path
         d="m 19673.6,11986.3 -127.4,573.5 -891,-308.7 170.7,-689.6 c 128.4,6.7 560.5,57 847.7,424.8"
         style="fill:#f9bc8f;fill-opacity:1;fill-rule:nonzero;stroke:none"
         id="path62" /><path
         d="m 19345,12576.3 c -13.6,-51.1 -22.4,-104 -46.3,-151.4 -55.2,-109.1 -185.9,-170.7 -312.1,-170.2 -126.2,0.5 -246.9,54.7 -347.9,127.7 -69.9,50.5 -133,124.7 -149.2,208.8 -11.3,58.1 -9.2,118.2 -22.5,176 23.9,-62.3 106,-83.3 147.2,-136.6 2.5,-3.2 4.9,-7.1 3.8,-10.9 -9.8,-32.9 -69.9,-17 -72.6,-52.4 -2,-24.9 47.7,-61 65.7,-73.2 58.6,-39.5 137.4,-52.3 207.6,-49.1 60.9,2.7 127.4,17.5 163.3,64.9 31.4,41.2 31.4,98.6 13.5,146.8 -18,48.1 -51.6,89.2 -84.7,129.4 -57.8,70.4 -115.7,140.8 -173.6,211.2 71.3,-86.8 237.2,-120.1 289.7,-218.9 6.2,-11.6 9.5,-24.5 15,-36.4 16.4,-34.9 53.5,-59.7 93.2,-63.1 39.6,-3.5 80.3,14.2 104.5,44.5 16.8,21 25.7,46.8 32.7,72.4 57,211.4 -118.5,304 -240.2,450.6 -7.6,9.1 -15.1,21.4 -9.3,31.6 9.3,16 34.6,5.1 48.7,-7.2 85,-74.5 244.2,-306.6 377.4,-281.9 39.9,7.4 74.4,32.2 100.8,61.9 23.4,26.5 42,58.8 42.5,93.6 0.5,37.5 -19.8,72 -40.8,103.7 -37.8,57 -79.6,111.5 -125.1,163 -21.8,24.6 -45.6,51.4 -46.8,83.6 23.5,0.5 43.2,-16.3 59.8,-32.3 59.2,-56.9 118.5,-116.2 164.5,-183.1 36,-52.2 71.8,-93 144.6,-50 26.9,15.8 48,39 68.7,61.9 27.3,-37.6 26.5,-89.3 8.1,-131.5 -48,-109.9 -195.5,-139.5 -278.4,-224.9 -96.5,-99.5 -167,-226.8 -201.8,-358.5"
         style="fill:#cc8862;fill-opacity:1;fill-rule:nonzero;stroke:none"
         id="path64" /><path
         d="m 19537,12823.4 c 39.9,77.9 79.9,155.7 119.8,233.6 -25.1,-4.7 -47.6,-17.7 -68.9,-31.3 -73.5,-46.5 -142.2,-102.2 -192.2,-171.8 -50,-69.7 -80.4,-154.6 -73,-239 4.9,-55.3 27.6,-111.4 72.3,-146.6 59.4,-46.9 327.2,-49.5 256.4,48.3 -32.7,45.4 -105.2,54.2 -137.3,105.9 -41.2,66.1 -9.2,138.3 22.9,200.9"
         style="fill:#cc8862;fill-opacity:1;fill-rule:nonzero;stroke:none"
         id="path66" /><path
         d="m 25645.9,7386.9 c -361,68 -706,65.1 -956.1,107.9 -393.4,67.3 -641.1,75.5 -836.6,81.9 -234.5,7.6 -1570.5,45.6 -1798.2,-56.8 -227.8,-102.4 -225.2,-450.7 -323.3,-757 -69.9,-218.1 -134.2,-1079.1 -133.8,-1312.3 1.8,-1326.3 33,-1903.8 127.9,-3090.5 29.5,-368 3516.5,-576.4 3754.4,220.4 10.5,1710.1 747.6,4603.6 165.7,4806.4"
         style="fill:#1c75bc;fill-opacity:1;fill-rule:nonzero;stroke:none"
         id="path68" /><path
         d="m 22776.3,7442.2 c 0,0 -55.5,-690.2 502.2,-1040.7 l 292.1,212.4 278.2,-274.6 c 0,0 629.5,469 790.7,877.5 l -187.2,45.1 -626.8,-653.3 -270.3,198.9 -244.9,-124.5 -534,759.2"
         style="fill:#0c5689;fill-opacity:1;fill-rule:nonzero;stroke:none"
         id="path70" /><path
         d="m 23802.8,6431.4 -69.2,-169.9 115.2,-1545.4 H 23541 l 67.2,1743.6 125.4,152.3 69.2,-180.6"
         style="fill:#0c5689;fill-opacity:1;fill-rule:nonzero;stroke:none"
         id="path72" /><path
         d="m 23424,6339.3 -542.6,-3023.1 h 922.8 l -102.9,3001.2 -277.3,21.9"
         style="fill:#ffffff;fill-opacity:1;fill-rule:nonzero;stroke:none"
         id="path74" /><path
         d="m 23367.6,6652.5 61.2,-391.7 258.3,-17.7 161.7,492.2 -293.6,72.2 -187.6,-155"
         style="fill:#ffffff;fill-opacity:1;fill-rule:nonzero;stroke:none"
         id="path76" /><path
         d="m 23108.5,8012.63 c 0.7,-140.13 -1.8,-281.63 -10.2,-426.83 -21.7,-374.5 474,-847.1 515.5,-850.5 41.6,-3.3 634.2,526 815.4,706.9 -562.4,311.2 -1155.3,516 -1320.7,570.43"
         style="fill:#f9bc8f;fill-opacity:1;fill-rule:nonzero;stroke:none"
         id="path78" /><path
         d="m 24481.4,7499.9 c 51.5,123.2 -1.5,1087.89 36.6,1092.91 1.4,210.58 -3.9,442.18 -129.2,604.24 -65,84.11 -155.4,138.69 -246.8,182.29 -230.4,109.95 -506.1,195.17 -750.5,125.35 -131.6,-37.62 -255.4,-135.89 -294.4,-280.13 -18,-66.51 -17.1,-137.82 -16.1,-207.83 5.2,-346.58 25.7,-671.28 27.5,-1004.1 165.4,-54.43 758.3,-259.23 1320.7,-570.43 30.3,30.2 49.5,51.1 52.2,57.7"
         style="fill:#cc8862;fill-opacity:1;fill-rule:nonzero;stroke:none"
         id="path80" /><path
         d="m 24505.5,7918.6 c 0,0 275,-221 325.3,-433 2.1,-8.9 -554.8,-808.6 -997.7,-1025.9 l -280.2,226.4 -277,-226.4 c 0,0 -576.4,585.5 -492.9,1145.1 l 324.7,242.3 c 0,0 190.1,-862.9 465.8,-963.2 0,0 745.4,483.2 932,1034.7"
         style="fill:#47a7dd;fill-opacity:1;fill-rule:nonzero;stroke:none"
         id="path82" /><path
         d="m 24095,13988.8 -317.5,44.4 63.3,1406.8 573.7,-80.2 -319.5,-1371"
         style="fill:#47a7dd;fill-opacity:1;fill-rule:nonzero;stroke:none"
         id="path84" /><path
         d="m 25827.9,12473.8 -152.3,285.8 1154.4,784.2 275.3,-516.5 -1277.4,-553.5"
         style="fill:#47a7dd;fill-opacity:1;fill-rule:nonzero;stroke:none"
         id="path86" /><path
         d="m 25123.2,13405.5 -227.7,196.9 503.2,909.9 411.4,-355.6 -686.9,-751.2"
         style="fill:#47a7dd;fill-opacity:1;fill-rule:nonzero;stroke:none"
         id="path88" /><path
         d="m 21705.1,13187.7 223.9,233.2 -898.6,1071.4 -404.7,-421.5 1079.4,-883.1"
         style="fill:#47a7dd;fill-opacity:1;fill-rule:nonzero;stroke:none"
         id="path90" /><path
         d="m 22635.2,13890.7 272.3,126.9 -238.1,1013.6 -492,-229.2 457.8,-911.3"
         style="fill:#47a7dd;fill-opacity:1;fill-rule:nonzero;stroke:none"
         id="path92" /><path
         d="m 25455,9574.62 c -147.2,-437.18 -446.7,-859.84 -884.1,-885.19 -38.7,-2.23 -78.8,-1.39 -114.3,15.11 -44.5,20.68 -76.4,63.39 -101.3,107.6 -153.1,271.66 -99.6,618.64 -7.5,919.28 71.9,234.49 165.6,464.48 307.3,659.88 141.7,195.4 335.1,355.1 559.7,418.8 173.1,49.1 357.7,46.4 395.2,-173.3 59.6,-348.4 -43,-729.72 -155,-1062.18"
         style="fill:#231f20;fill-opacity:1;fill-rule:nonzero;stroke:none"
         id="path94" /><path
         d="m 22569.4,11533.1 c 86.3,68.8 207.3,126.1 302.7,70.8 85.1,-49.2 104.9,-162.9 101.9,-261 -9.8,-317.4 -160.8,-613.3 -336.1,-878 -57.5,-86.7 -122.4,-175.2 -217.1,-218.1 -79.9,-36.2 -217.6,-33.1 -252.4,61.6 -28.3,77.1 -23.5,208.6 -25.4,291 -5.3,225.8 56.7,452.9 174.3,645.5 66.8,109.5 151.8,208.1 252.1,288.2"
         style="fill:#231f20;fill-opacity:1;fill-rule:nonzero;stroke:none"
         id="path96" /><path
         d="m 22060.2,9523.39 c 85.5,-139.96 244.2,-225.44 361.5,-160.59 268.8,148.58 115.6,550.17 -51.3,778.6 -375.6,514.2 -530.8,-256.45 -310.2,-618.01"
         style="fill:#d8996f;fill-opacity:1;fill-rule:nonzero;stroke:none"
         id="path98" /><path
         d="m 24764.9,8870.24 c 253.9,498.61 330.7,1332.56 162.4,1878.66 -245.7,797 -827.7,1197.2 -1570,1053.6 -668.3,-129.2 -967.6,-835.5 -1042.4,-1506.7 -35.7,-320.36 -32.9,-810.58 140.4,-1240.64 227.5,-564.55 770.4,-1093.06 1101.8,-1062.76 336,19.88 1010.1,489.49 1207.8,877.84"
         style="fill:#f9bc8f;fill-opacity:1;fill-rule:nonzero;stroke:none"
         id="path100" /><path
         d="m 23778.4,12604.5 c -306.1,91.3 -619,228.7 -821.4,502.2 -52,-117.8 -74.6,-251.9 -64.6,-383.4 -111.1,46 -216.6,109.6 -312,188.4 -10.2,-103.5 -20.4,-207.1 -30.5,-310.7 -103.9,0.4 -207.6,37.9 -292.4,105.6 -75.7,-320.8 -67,-660.9 16.8,-979.2 74.6,-283.3 188.4,-624.5 489.7,-726.4 118.9,-40.2 246.6,-48 372,-43.3 289.7,10.8 1047.4,118.6 1206.3,243.8 523.1,-318.9 579.7,-1298.44 582.4,-1659.01 272.8,69.58 629.8,490.11 680.2,797.71 101.1,617.1 -86.3,1186.5 -546.9,1592.7 -368.5,325.1 -834.7,538.9 -1279.6,671.6"
         style="fill:#231f20;fill-opacity:1;fill-rule:nonzero;stroke:none"
         id="path102" /><path
         d="m 24618.8,9690.17 c -25.1,-105.49 1.7,-222.63 68.4,-299.06 66.8,-76.43 171.2,-109.57 266.6,-84.6 248.9,31.44 457.5,309.45 439.6,585.74 -4.2,64.57 -20.3,130.35 -59.1,177.45 -59.3,72 -160.7,85.4 -247.4,58.7 -86.7,-26.6 -162.5,-86.5 -236.1,-145.18 l -232,-293.05"
         style="fill:#f9bc8f;fill-opacity:1;fill-rule:nonzero;stroke:none"
         id="path104" /><path
         d="m 24151.2,10056.5 c 82.7,-9.2 203.3,-64.16 195.9,-162.89 -0.3,-4.21 -0.8,-8.54 -3,-12.15 -3.1,-5.17 -9,-8.02 -14.9,-9.34 -31.1,-6.95 -57.8,20.3 -82.4,40.54 -78.4,64.56 -200.4,69.08 -283.4,10.49 -16.7,-11.79 -33,-26.27 -53.2,-29.19 -71.4,-10.28 -42.4,57.78 -14,85.44 30.3,29.6 73.7,48.8 113.3,62.3 43.3,14.7 93.1,20.2 141.7,14.8"
         style="fill:#231f20;fill-opacity:1;fill-rule:nonzero;stroke:none"
         id="path106" /><path
         d="m 24008,9061.98 c -11.7,-116.45 -43.8,-230.84 -94.2,-336.45 -41.4,-86.52 -96.1,-168.37 -170.9,-228.3 -74.9,-59.94 -171.6,-96.3 -266.9,-85.89 -134.4,14.67 -245.4,119.48 -304.9,240.9 -61.4,125 -113.8,284.81 -106.4,424.97 131.5,-59.71 749,-55.72 943.3,-15.23"
         style="fill:#a52339;fill-opacity:1;fill-rule:nonzero;stroke:none"
         id="path108" /><path
         d="m 23227.7,9558.59 c -19,-32.5 -35.9,-66.55 -52.4,-100.03 -1.7,-3.48 -3.5,-7.15 -3.3,-11.03 0.4,-11.26 14.9,-15.34 26.1,-16.31 68.2,-5.91 136.4,-11.82 204.6,-17.72 5.2,-0.46 11.5,-1.57 13.6,-6.4 1.6,-3.71 0,-7.98 -1.7,-11.65 -29.2,-62.62 -75.2,-137.26 -153,-132.16 -93.8,6.14 -193.2,129.19 -172.8,222.61 6.4,28.95 24.5,53.73 42.1,77.57 78.6,106.29 157.2,212.58 235.8,318.87 37.7,50.94 46.3,-17.38 37,-47.69 -12.4,-40.28 -35.6,-77.03 -58.2,-112.26 -20.5,-31.96 -43.6,-61.58 -67.6,-90.84 -18.7,-22.66 -35.1,-47.33 -50.2,-72.96"
         style="fill:#d8996f;fill-opacity:1;fill-rule:nonzero;stroke:none"
         id="path110" /><path
         d="m 22959.7,10108.6 c 79.1,-9.7 194.7,-65.4 188.3,-164.02 -0.3,-4.19 -0.8,-8.52 -2.8,-12.11 -3,-5.15 -8.6,-7.96 -14.2,-9.24 -29.7,-6.75 -55.4,20.64 -79,41.02 -75.3,64.95 -191.9,70.25 -270.8,12.27 -15.9,-11.68 -31.3,-26.04 -50.7,-28.82 -68.1,-9.83 -40.8,58 -13.9,85.4 28.8,29.4 70.1,48.4 107.9,61.6 41.3,14.4 88.8,19.6 135.2,13.9"
         style="fill:#231f20;fill-opacity:1;fill-rule:nonzero;stroke:none"
         id="path112" /><path
         d="m 24187.1,10494 c 89.3,-17.1 172.8,-69.7 223.9,-151.7 16.6,-26.7 29.9,-62 16.3,-92.5 -99.9,61.4 -204.1,124.2 -320.2,130.3 -61.2,3.2 -122.8,-9.7 -184.2,-16.9 -40.8,-4.9 -54.4,24.8 -36.6,65.5 15.3,35.2 49.6,46.7 81.6,56.5 69.5,21.4 149.9,22 219.2,8.8"
         style="fill:#231f20;fill-opacity:1;fill-rule:nonzero;stroke:none"
         id="path114" /><path
         d="m 22951.8,10555.4 c -90.9,-3.1 -181.5,-42.4 -244.5,-115.5 -20.6,-23.8 -39.1,-56.6 -30.3,-88.9 108.1,45.4 220.7,91.4 336.3,79.7 61,-6.3 119.9,-28.4 179.5,-45 39.6,-11 57.6,16.2 46.3,59.2 -9.8,37.1 -41.9,53.7 -72,68.3 -65.5,31.8 -144.8,44.7 -215.3,42.2"
         style="fill:#231f20;fill-opacity:1;fill-rule:nonzero;stroke:none"
         id="path116" /><path
         d="m 23705.1,6205.7 c 0,0 -228.1,43.1 -305.1,0 l 20,111.6 c 0,0 98.7,-74.2 282.2,-28.2"
         style="fill:#7fadcc;fill-opacity:1;fill-rule:nonzero;stroke:none"
         id="path118" /><path
         d="m 6052.99,3296.8 c -5.21,-365.3 -40.11,-731.7 0.76,-1095 5.95,-52.9 13.73,-102.8 23.05,-150.3 h 3415.22 c -40.06,872.4 -31.36,1748.4 161.53,2579.5 130.49,562.2 345.21,1144.8 205.88,1711.6 -84.54,343.8 -843.17,894.3 -1679.81,988.8 -534.29,60.3 -1270.17,110.1 -1741.02,-120.7 -155.77,-76.4 -573.81,-383.4 -576.57,-894 -3.73,-689.7 198.83,-2468.2 190.96,-3019.9"
         style="fill:#1c75bc;fill-opacity:1;fill-rule:nonzero;stroke:none"
         id="path120" /><path
         d="m 11244.5,9827.3 c -316.3,-142.53 -432,-273.02 -514,-517.6 293.2,-445.44 634.9,-742.77 1021.5,-1222.03 15.6,-19.37 -2783.79,-649.17 -3060.23,-876.77 57.44,-280.8 1027.5,-1282.9 1232.26,-1186.4 763.47,359.9 2898.37,900 3188.57,1839.6 90.8,294.08 -1154.2,1354.86 -1868.1,1963.2"
         style="fill:#1c75bc;fill-opacity:1;fill-rule:nonzero;stroke:none"
         id="path122" /><path
         d="m 7024.6,7018.6 c 0,0 156.4,-796.3 557.94,-1017.6 l 527.71,306.3 c 0,0 391.24,-292.1 412.42,-289.3 21.17,2.7 366.53,322.1 307.43,845.5 l -424.53,-510.3 -411.51,135 -408.23,-135 -561.23,665.4"
         style="fill:#0c5689;fill-opacity:1;fill-rule:nonzero;stroke:none"
         id="path124" /><path
         d="m 8234.07,4791.7 c 0,0 103.24,302.9 -32.04,591.6 0,0 -118.9,307.3 -3.65,554.4 0,0 -6.36,197 -144.69,159.9 -12.79,84.7 -26.27,173.8 -26.27,173.8 l -216.82,-138 110.42,-194.3 c -11.11,-95.4 -14.98,-253.3 44.1,-414.6 94.26,-257.3 -20.82,-466.3 -195.07,-738 0,0 -56.41,-318.1 -5.59,-518.9 l 644.5,-65.9 c 0,0 -346.28,301.6 -174.89,590"
         style="fill:#0c5689;fill-opacity:1;fill-rule:nonzero;stroke:none"
         id="path126" /><path
         d="m 7833.95,6222.2 146.87,-320.8 271.57,13.2 178.28,472.8 -458.1,34.8 -138.62,-200"
         style="fill:#ffffff;fill-opacity:1;fill-rule:nonzero;stroke:none"
         id="path128" /><path
         d="m 7980.82,5971.8 c 0,0 -32.32,-255.2 95.28,-497.7 127.61,-242.6 41.32,-465 -95.28,-757.4 0,0 -13.65,-322.8 63.4,-515 l 647.55,20.2 c 0,0 -383.3,253 -251.75,561.6 0,0 62.09,313.9 -110.34,582.1 0,0 -158.67,288.7 -77.29,549 0,0 -48.95,293.3 -271.57,57.2"
         style="fill:#ffffff;fill-opacity:1;fill-rule:nonzero;stroke:none"
         id="path130" /><path
         d="m 8033,6307.3 c 41.97,-4.3 538.86,379.1 571.53,729.8 42.76,459 195.07,861 273.96,1315.66 11.22,64.64 22.47,130.5 14.11,195.33 -18.12,140.55 -127.76,253.78 -254.08,312.26 -234.65,108.6 -523.07,79.23 -769.77,18.84 -97.82,-23.96 -196.28,-58.23 -273.62,-124.42 -149.01,-127.53 -187.89,-341.03 -217.08,-536.25 37.43,-11.5 -150.93,-979.62 -117.31,-1102.92 12.6,-46.3 723.09,-803.2 772.26,-808.3"
         style="fill:#d8996f;fill-opacity:1;fill-rule:nonzero;stroke:none"
         id="path132" /><path
         d="m 11180.4,13046.2 c 22.3,-47.7 56.5,-93.3 98.9,-129.5 63.2,-54 134.1,-78.1 199.7,-68 22.2,3.4 50.3,12.4 58.4,35.6 8,22.8 -4.2,55.6 -31.8,85.5 -60.8,65.8 -171.6,98.3 -282.2,83 -14.8,-2.1 -29.2,-4.2 -43,-6.6 z m -132.8,-348.1 c 21.7,-28.5 50.2,-52.8 85.8,-69.5 59.4,-27.9 96.6,-22.2 111.6,-7.4 10.2,10 12,25.5 4.9,41.4 -13,29 -55.4,58 -136.1,52.7 -26.4,-1.7 -48.5,-7.5 -66.2,-17.2 z m 159.4,-391.2 c -82.3,0 -162.5,46.8 -217,127.6 -56.1,83.1 -70.7,181.1 -37.1,249.7 4.1,8.2 9.2,16.8 15.7,25.4 -32.4,63.1 -45,137.9 -31.5,211.8 18.7,102.5 88.6,147.2 162.4,169.7 -6.2,24.8 -9.5,49.6 -9.6,73.6 -0.5,160.3 96.4,258.4 296.5,299.7 16.5,3.4 32.9,-7.3 36.3,-23.9 3.5,-16.6 -7.2,-32.9 -23.9,-36.3 -171.5,-35.5 -247.8,-109.3 -247.4,-239.3 0.1,-19.4 2.8,-39.5 7.8,-59.8 19.5,3.5 38.4,6.2 55.7,8.6 103.4,14.3 246,-4.9 335.9,-102.2 43.7,-47.3 60.4,-102.5 44.6,-147.5 -8.2,-23.5 -33,-64.6 -107,-76.1 -83.6,-12.9 -172.1,16.2 -249,82 -52.4,44.8 -94.1,102.4 -120,162.8 -63.7,-18.7 -108.9,-51.3 -121.8,-122.3 -9.1,-50.1 -3.4,-107.6 19,-159.1 23.4,13.1 53.8,22.8 93.2,25.4 112.1,7.4 174.8,-41.2 196.2,-89 17.5,-39.1 10.5,-82.5 -18,-110.4 -18.5,-18.2 -73.1,-54.9 -180.7,-4.4 -39.6,18.6 -73.8,46.1 -101.3,79.5 -20.7,-48.5 -7,-121.4 34.9,-183.5 45.6,-67.5 111.9,-105.1 177.4,-100.1 16.8,1.2 31.6,-11.4 32.9,-28.4 1.2,-16.9 -11.5,-31.6 -28.5,-32.9 -5.2,-0.4 -10.5,-0.6 -15.7,-0.6"
         style="fill:#47a7dd;fill-opacity:1;fill-rule:nonzero;stroke:none"
         id="path134" /><path
         d="m 6436.85,13354 c -111.02,0 -222.83,-29.4 -305.44,-82.3 -42.04,-26.9 -92.59,-88.9 -100.95,-142.3 -3.61,-23 0.86,-41.7 13.68,-57.2 21.32,-25.8 92.19,-27.9 184.97,-5.6 114.33,27.6 193.12,123.4 258,211 15.48,20.9 30.92,44.4 44.69,68.8 -4.76,0.9 -9.6,1.6 -14.5,2.3 -26.47,3.5 -53.45,5.3 -80.45,5.3 z m 184.01,-400.9 c -21.99,0 -45.8,-1.1 -71.52,-3.2 -64.51,-5.3 -142.48,-32.6 -166.67,-74.4 -11.74,-20.3 -10.9,-44.1 2.56,-72.8 10.32,-21.9 24.63,-33.8 45.06,-37.5 58.55,-10.6 150.68,47.5 194.38,90.1 28.66,28 52.54,59.4 71.11,92.6 -22.05,3.5 -47.01,5.2 -74.92,5.2 z m 44.97,-393.1 c -13.75,0 -26.28,9.4 -29.79,23.3 -4.15,16.5 5.85,33.2 22.33,37.3 92.84,23.3 183.01,108.3 167.24,219.8 -5.96,42.1 -28.64,72 -69.39,90.5 -22.25,-43.2 -52.05,-83.9 -88.59,-119.6 -36.45,-35.5 -152.07,-124 -248.3,-106.6 -39.99,7.2 -71.02,32.1 -89.74,71.9 -27.85,59.2 -15.45,103.2 -0.14,129.7 39.08,67.5 140.15,98.7 214.83,104.9 36.81,3 109.07,9 177.97,-5.3 22.79,63.9 26.33,130.2 7.2,188 -21.07,63.6 -68.48,110.4 -136.41,136.1 -20.11,-37.7 -41.92,-69.3 -56.51,-89 -71.31,-96.3 -158.64,-201.7 -293,-234.2 -85.64,-20.6 -197.96,-32.8 -246.77,26.2 -24.01,29 -33.36,65.7 -27.04,106 11.56,73.8 74.87,150.2 128.57,184.5 114.39,73.2 278.12,106.2 427.22,86.1 11.76,-1.6 23.17,-3.6 34.28,-6 16.98,41.4 26.13,82.2 20.31,115.7 -4.49,25.7 -17.58,45.5 -40.02,60.5 -14.13,9.4 -17.93,28.5 -8.5,42.6 9.42,14.2 28.49,18 42.63,8.5 36.68,-24.4 59.04,-58.4 66.46,-101 8.12,-46.7 -3.09,-97.3 -21.5,-143.9 83.23,-32.4 141.83,-91.8 168.66,-172.8 23.13,-69.9 19.44,-149.5 -7.13,-225.5 52.75,-23.3 95.38,-65.1 105.8,-138.7 20.79,-147.1 -94.31,-258.2 -213.16,-288 -2.51,-0.6 -5.03,-1 -7.51,-1"
         style="fill:#47a7dd;fill-opacity:1;fill-rule:nonzero;stroke:none"
         id="path136" /><path
         d="m 11875.3,11381.3 c 52.3,0 103.9,-10 145.1,-32.2 -32.7,59.9 -49.7,133.8 -49.5,185.5 -28,-0.4 -57.4,-7.3 -85.8,-25.7 -36.8,-23.7 -63.7,-69.3 -75.8,-128.5 -0.3,-1.5 -0.6,-2.9 -0.9,-4.4 21.9,3.5 44.5,5.3 66.9,5.3 z m 157.1,144.1 c 2.5,-61.7 34.2,-160.7 84.5,-200.9 21.4,-17.1 42.7,-21.2 66.9,-12.7 24.8,8.6 29,22 30,31.3 4,36.7 -38.3,105 -113.5,151.6 -14.7,9 -38.8,22 -67.9,30.7 z m -229.5,-212.6 c 0.4,-54.3 13.7,-106.7 37.7,-142 23,-33.8 71.2,-55.6 114.7,-51.9 23.7,2.1 55.5,12.4 72.5,49.9 20.8,46 17.5,81.2 -10.1,107.5 -42.7,40.5 -133.7,53.5 -214.8,36.5 z M 11945,11057 c -61.3,0 -122.2,30.6 -155.2,79.2 -28,41.1 -44.5,97.4 -47.8,156.9 -3.2,-1.5 -6.4,-3 -9.5,-4.6 -36.6,-18.8 -78.5,-53.5 -70.2,-112 2.3,-16.8 -9.4,-32.3 -26.2,-34.7 -16.8,-2.2 -32.4,9.4 -34.7,26.2 -10.2,72.4 27.3,136.2 103,175.2 12.2,6.2 25.5,11.9 39.5,16.7 1.2,11 3,22 5.2,32.8 15.3,75.5 51.8,135.2 102.7,168 38.7,24.9 82.4,36.7 128.4,35.5 25.5,88 96.6,158.3 163,192.2 15.1,7.7 33.7,1.8 41.4,-13.3 7.7,-15.2 1.7,-33.7 -13.4,-41.4 -60.1,-30.7 -109.1,-87.6 -129.2,-146.7 30.1,-8.1 60.6,-21.5 90.6,-40.1 89.7,-55.4 149.6,-143.9 142.3,-210.4 -4.2,-38.9 -29.4,-68.3 -70.8,-82.8 -37.5,-13.1 -74.4,-9.4 -107.9,10.5 9.8,-30.2 10.5,-70.1 -12.4,-120.7 -22.5,-49.7 -67.4,-81 -123.3,-85.8 -5.1,-0.4 -10.3,-0.7 -15.5,-0.7"
         style="fill:#47a7dd;fill-opacity:1;fill-rule:nonzero;stroke:none"
         id="path138" /><path
         d="m 12699.7,10433 c 34,-30.6 66.7,-56.5 98.1,-77.6 31.3,-21.2 62.2,-36.5 92.7,-45.7 30.4,-9.2 60.3,-11.8 89.8,-7.8 29.4,4 59.6,16.2 90.8,36.7 49.6,32.6 76.3,76.7 80.2,132.2 3.9,55.5 -16.8,117.8 -62.2,186.8 -28.8,43.8 -55.2,77 -79.1,99.6 -23.9,22.6 -50.4,44.4 -79.7,65.6 12.7,20.9 27,41.1 42.8,60.5 15.7,19.4 33.9,38 54.3,55.6 23.2,-18.2 43.9,-35.6 62.4,-52 18.5,-16.4 35.4,-33.1 50.8,-50.2 15.4,-17 30.2,-34.8 44.5,-53.3 14.2,-18.5 28.7,-38.9 43.4,-61.3 75.4,-114.7 106.5,-218.7 93.2,-311.7 -13.4,-93.1 -62.9,-167.8 -148.5,-224.1 -49.6,-32.6 -98.7,-50.6 -147.3,-54 -48.6,-3.4 -93.6,0.5 -135,11.5 -41.5,11.1 -78.5,26.1 -111.1,45.1 -32.7,18.9 -57.7,35.2 -75,48.9 l -150.3,-98.8 c -18.6,19.8 -36.2,42.3 -52.8,67.6 -7.1,10.7 -13.9,22.2 -20.6,34.5 -6.8,12.3 -12.7,24.5 -17.7,36.5 l 236.3,155.4"
         style="fill:#47a7dd;fill-opacity:1;fill-rule:nonzero;stroke:none"
         id="path140" /><path
         d="m 12385.3,9991 c -47.5,-31.22 -111.3,-18.03 -142.5,29.4 -31.3,47.5 -18,111.3 29.4,142.5 47.5,31.3 111.3,18.1 142.5,-29.4 31.2,-47.5 18.1,-111.3 -29.4,-142.5"
         style="fill:#47a7dd;fill-opacity:1;fill-rule:nonzero;stroke:none"
         id="path142" /><path
         d="m 5127.83,11622.3 c 22.85,39.2 41.4,76.2 55.63,111 14.27,34.8 22.8,67.9 25.61,99.4 2.82,31.5 -0.71,61.1 -10.55,88.9 -9.87,27.8 -27.88,54.7 -54.1,80.9 -41.76,41.6 -90,58.7 -144.78,51.2 -54.77,-7.4 -111.14,-40.2 -169.1,-98.3 -36.73,-36.9 -63.65,-69.2 -80.79,-97 -17.11,-27.9 -33,-58.1 -47.67,-90.9 -22.9,8.2 -45.41,17.9 -67.5,29.4 -22.09,11.4 -43.76,25.2 -65.06,41.6 13.05,26.2 25.68,49.9 37.91,71.2 12.22,21.2 25.07,41.1 38.53,59.5 13.47,18.4 27.73,36.4 42.85,54 15.08,17.6 32.01,35.8 50.8,54.7 96.31,96.6 191.08,147.8 284.28,153.7 93.2,5.9 175.84,-27.1 247.88,-98.9 41.76,-41.7 69.2,-85.8 82.38,-132.4 13.14,-46.6 18.52,-91.1 16.13,-133.6 -2.39,-42.6 -9.46,-81.6 -21.28,-117.2 -11.81,-35.6 -22.59,-63.2 -32.38,-82.8 l 126.51,-126.1 c -15.5,-22.1 -33.86,-43.8 -55.07,-65.1 -9,-9 -18.78,-18 -29.4,-27 -10.59,-9.1 -21.21,-17.2 -31.85,-24.6 l -198.98,198.4"
         style="fill:#47a7dd;fill-opacity:1;fill-rule:nonzero;stroke:none"
         id="path144" /><path
         d="m 5621.29,11406 c 39.96,-39.8 40.07,-104.6 0.22,-144.6 -39.83,-39.9 -104.56,-40 -144.52,-0.2 -39.98,39.9 -40.07,104.6 -0.22,144.6 39.84,39.9 104.54,40 144.52,0.2"
         style="fill:#47a7dd;fill-opacity:1;fill-rule:nonzero;stroke:none"
         id="path146" /><path
         d="m 8252.89,13413.8 c 45.36,23.2 85.33,46.8 119.84,71 34.56,24.1 62.69,50.2 84.43,78.2 21.76,27.9 36.38,58 43.98,90.2 7.55,32.2 6.92,68.5 -1.96,109.1 -14.14,64.6 -49.27,110 -105.43,136.2 -56.17,26.2 -129.23,29.4 -219.14,9.8 -56.99,-12.5 -102.01,-26.7 -135.04,-42.5 -33.04,-15.9 -66.39,-34.8 -100.07,-56.7 -16.64,21.5 -31.97,44.4 -45.85,68.6 -13.93,24.1 -25.95,50.4 -36.12,78.7 28.18,16.8 54.48,31.5 78.93,44.1 24.4,12.6 48.6,23.6 72.45,32.8 23.86,9.2 48.25,17.5 73.19,25 24.89,7.4 51.91,14.3 81.06,20.7 149.44,32.7 269.88,23.5 361.35,-27.5 91.44,-51 149.38,-132.3 173.75,-243.7 14.11,-64.6 13.23,-122.9 -2.58,-174.7 -15.88,-52 -37.83,-97.2 -65.88,-135.9 -28.05,-38.7 -58.42,-71.2 -91.11,-97.6 -32.76,-26.4 -59.65,-45.8 -80.79,-58.4 l 42.78,-195.7 c -28.03,-11.5 -58.5,-20.8 -91.41,-28 -13.95,-3 -28.63,-5.6 -44.11,-7.6 -15.47,-2.1 -30.45,-3.4 -44.95,-3.9 l -67.32,307.8"
         style="fill:#47a7dd;fill-opacity:1;fill-rule:nonzero;stroke:none"
         id="path148" /><path
         d="m 8587.07,12910.5 c 13.52,-61.8 -25.65,-123 -87.49,-136.5 -61.81,-13.5 -122.9,25.7 -136.42,87.5 -13.55,61.8 25.63,122.9 87.47,136.4 61.82,13.6 122.9,-25.6 136.44,-87.4"
         style="fill:#47a7dd;fill-opacity:1;fill-rule:nonzero;stroke:none"
         id="path150" /><path
         d="m 11186,9831.61 -322.2,217.09 -420.2,-360.64 c 0,0 143.6,-128.6 236.5,-219.73 79.9,120.74 244.1,311.51 505.9,363.28"
         style="fill:#f9bc8f;fill-opacity:1;fill-rule:nonzero;stroke:none"
         id="path152" /><path
         d="m 10680.1,9468.33 c 43.1,-42.25 75.3,-76.46 77.2,-86.05 116.3,187.2 268.1,331.09 456.2,430.79 l -27.5,18.54 c -261.8,-51.77 -426,-242.54 -505.9,-363.28"
         style="fill:#d39367;fill-opacity:1;fill-rule:nonzero;stroke:none"
         id="path154" /><path
         d="m 9981.29,8649.13 c -96.98,-122.45 -255.96,-184.98 -357.94,-110.19 -233.61,171.35 -41.37,533.3 142.61,730 414.14,442.75 465.84,-303.46 215.33,-619.81"
         style="fill:#d39367;fill-opacity:1;fill-rule:nonzero;stroke:none"
         id="path156" /><path
         d="M 7057.36,8771.71 C 7197.55,7956.9 7980.22,7374 8158.42,7323.1 c 102.67,-29.3 915.01,326.7 1210.6,781.44 63.47,97.64 125.8,195.96 185.1,294.88 -1024.58,935.25 -2157.19,528.46 -2496.76,372.29"
         style="fill:#f9bc8f;fill-opacity:1;fill-rule:nonzero;stroke:none"
         id="path158" /><path
         d="m 9351.2,11286.5 c -703.66,344.9 -1488.98,123.6 -1952.92,-605.8 -317.88,-499.7 -377.5,-1118.2 -361.95,-1697.89 1.93,-71.89 9.19,-142.32 21.03,-211.1 339.57,156.17 1472.18,562.96 2496.76,-372.29 211.58,352.99 384.5,713.82 432.13,1079.84 92.85,713.74 -5.01,1498.44 -635.05,1807.24"
         style="fill:#d39367;fill-opacity:1;fill-rule:nonzero;stroke:none"
         id="path160" /><path
         d="m 9470.33,12117.5 c 330.49,-20.6 683.97,1.3 978.57,195.1 8.5,-133.2 -17.4,-271.7 -74.1,-396.1 124.6,5.1 249.9,29.3 370.9,71.9 -27.1,-104.5 -54.2,-208.9 -81.4,-313.3 101.2,-36.7 215.5,-37.3 322.3,-1.7 -67.8,-560.8 -383.8,-1101.5 -831.7,-1423 -42.8,-30.8 -90,-60.7 -139.5,-60.4 -73.07,0.4 -125.9,64.5 -171.1,122.9 -321.32,415.3 -754.99,797.8 -1276.26,765.4 -340.42,-21.2 -669.83,-223.7 -915.79,-498.6 -245.97,-274.8 -416.33,-617.09 -547.85,-966.9 -240.52,165.15 -244.63,547.5 -183.75,864.8 122.13,636.5 471.56,1213.1 1064.84,1443.8 474.66,184.5 1004.62,226 1484.84,196.1"
         style="fill:#231f20;fill-opacity:1;fill-rule:nonzero;stroke:none"
         id="path162" /><path
         d="m 9127.67,10223.2 c 303.29,-25.4 633.52,31.2 849.85,245.3 216.38,214.1 256.88,614.9 23.98,810.9 -51.66,43.5 -112.5,74.6 -173.46,103.7 -519.55,248.3 -1149.4,377.2 -1662.49,115.8 -1046.73,-533.2 384.7,-1227.5 962.12,-1275.7"
         style="fill:#231f20;fill-opacity:1;fill-rule:nonzero;stroke:none"
         id="path164" /><path
         d="m 9854.25,9894.03 c 39.28,-183.31 -48.97,-725.96 -39.21,-720.52 189.36,105.55 383.96,855.49 381.86,1095.09 -0.7,80.3 -5.1,161.9 -31.5,237.8 -26.5,75.9 -77.7,146.2 -150.7,179.6 -157.31,72 -384.03,-60.2 -376.83,-238.7 3.42,-84.9 62.93,-164.5 100.66,-236.9 52.48,-100.7 91.89,-205.1 115.72,-316.37"
         style="fill:#231f20;fill-opacity:1;fill-rule:nonzero;stroke:none"
         id="path166" /><path
         d="m 7146.43,9439.08 c -34.14,91.46 -69.55,185.06 -132.42,254.97 -62.87,69.91 -160.11,112.13 -251.24,79.7 -59.58,-21.19 -108.93,-71.04 -147.08,-126.18 -163.28,-235.98 -126.1,-594.32 78.33,-754.98 71.48,-73.07 181.94,-99.3 282.01,-66.97 100.07,32.35 186.36,122.16 220.3,229.3 l -49.9,384.16"
         style="fill:#d39367;fill-opacity:1;fill-rule:nonzero;stroke:none"
         id="path168" /><path
         d="m 7650.49,9390 c 45.92,63.63 109.08,102.61 187.53,89.08 196.64,-33.91 150.54,-379.62 79.01,-495.24 -77.03,-124.5 -231.27,-189.9 -318.6,-50.16 -62.89,100.73 -40.28,328.37 52.06,456.32"
         style="fill:#9e5c30;fill-opacity:1;fill-rule:nonzero;stroke:none"
         id="path170" /><path
         d="m 8999.79,9127.32 c 46.31,58.17 110.02,93.8 189.17,81.43 198.36,-31 151.87,-347.03 79.7,-452.73 -77.7,-113.81 -233.3,-173.6 -321.4,-45.85 -63.44,92.08 -40.63,300.18 52.53,417.15"
         style="fill:#9e5c30;fill-opacity:1;fill-rule:nonzero;stroke:none"
         id="path172" /><path
         d="m 9242.99,9546.75 c 74.14,-34.94 163.95,-38.06 246.79,-0.02 26.93,12.37 56.28,33.5 63.54,65.4 -106.59,5.08 -217.06,11.37 -304.39,69.66 -46.05,30.74 -83.42,74.6 -123.76,113.91 -26.82,26.13 -53.25,9.68 -63.17,-32.75 -8.57,-36.64 9.75,-64.53 27.37,-89.82 38.34,-55.03 96.11,-99.27 153.62,-126.38"
         style="fill:#231f20;fill-opacity:1;fill-rule:nonzero;stroke:none"
         id="path174" /><path
         d="m 8075.84,9669.9 c -81.36,-9.87 -167.6,15.4 -234.28,77.55 -21.69,20.21 -42.9,49.5 -39.76,82.06 102.78,-28.68 209.63,-57.43 310.85,-29.55 53.39,14.71 102.64,44.6 153.3,69.23 33.67,16.38 53.59,-7.54 49.67,-50.94 -3.38,-37.47 -29.54,-58.19 -54.21,-76.66 -53.7,-40.19 -122.45,-64.03 -185.57,-71.69"
         style="fill:#231f20;fill-opacity:1;fill-rule:nonzero;stroke:none"
         id="path176" /><path
         d="m 8389.13,8333.81 c -46.42,8.65 -92.85,17.31 -139.27,25.97 79.69,-14.86 129.09,-117.29 233.43,-103.34 70.34,9.39 136.22,72.78 158.72,140.05 39.8,118.97 -13.55,293.07 -29.57,414.14 -36.66,-125.65 -53.58,-253.3 -80.12,-379.27 -17.4,-82.56 -41.56,-116.51 -143.19,-97.55"
         style="fill:#d8996f;fill-opacity:1;fill-rule:nonzero;stroke:none"
         id="path178" /><path
         d="m 7971.64,10636.1 c -73.65,-70.4 -128.11,-165.3 -133.08,-267.1 -4.97,-101.8 46.55,-208.8 138.06,-253.7 -24.92,46 -35.27,99.7 -29.14,151.6 9.06,76.7 53.72,146.8 114.26,194.7 60.54,47.9 135.87,74.9 212.34,85.5 34.6,4.9 70.81,6.9 101.44,23.7 30.64,16.8 53.58,54.4 40.41,86.8 -6.97,17.1 -22.35,29.2 -38,39.1 -130.85,82.1 -298.66,42.4 -406.29,-60.6"
         style="fill:#231f20;fill-opacity:1;fill-rule:nonzero;stroke:none"
         id="path180" /><path
         d="m 8057.56,12439.2 c -6.79,-312.3 322.38,-435.5 431.84,-490.9 53.33,-26.9 102.21,-88 95.76,-157.8 -26.65,-288.2 -461.64,-193 -568.41,-42.9 -69.07,97.1 -104.87,228.1 -97.32,356.1 7.55,128 58.36,251.4 138.13,335.5"
         style="fill:#231f20;fill-opacity:1;fill-rule:nonzero;stroke:none"
         id="path182" /><path
         d="m 9343.95,9802.83 c 60.36,-11.09 123.76,10.95 171.39,49.66 47.64,38.7 80.94,92.59 104.8,149.11 45.52,108 58.3,234.1 12.35,341.9 -59.53,139.6 -307.6,276.4 -286.35,32.3 8.43,-96.9 68,-178.6 78.14,-275.4 3.51,-33.5 -20.46,-308.56 -80.33,-297.57"
         style="fill:#231f20;fill-opacity:1;fill-rule:nonzero;stroke:none"
         id="path184" /><path
         d="m 9381.66,8687.51 c -18.6,-39.6 -70.54,-193.67 -74.87,-236.5 -1.77,-17.39 -1.01,-38.2 13.52,-47.89 14.98,-10 35.95,-1.4 48.1,11.9 23.75,26.02 26.37,64.55 26.2,99.78 -0.26,57.78 -4.6,115.54 -12.95,172.71"
         style="fill:#ffffff;fill-opacity:1;fill-rule:nonzero;stroke:none"
         id="path186" /><path
         d="m 7544.27,10116.8 c -42.17,-60 -166.05,-296.72 -180.62,-364.29 -5.92,-27.42 -7.39,-60.75 19.83,-78.74 28.06,-18.55 70.52,-8.5 96.28,10.61 50.39,37.39 60.96,98.38 65.62,154.62 7.63,92.22 7.26,185.1 -1.11,277.8"
         style="fill:#ffffff;fill-opacity:1;fill-rule:nonzero;stroke:none"
         id="path188" /><path
         d="m 7605.41,8566.6 c -34.09,-54.79 -134.86,-270.79 -147.12,-332.23 -4.97,-24.93 -6.47,-55.17 14.96,-71.23 22.1,-16.54 55.92,-6.99 76.57,10.61 40.4,34.41 49.41,89.85 53.67,140.91 6.99,83.73 7.63,167.99 1.92,251.94"
         style="fill:#ffffff;fill-opacity:1;fill-rule:nonzero;stroke:none"
         id="path190" /><path
         d="m 10307,9779.4 c -132.4,153.29 -79.6,416.4 -72.4,618.5 7.1,198.8 11.7,430.4 -64.3,615.5 -25.6,62.2 -71.1,84.2 -45,162.7 19.9,60.2 130.4,29.4 193,-18.9 -121.4,191.9 0,313.3 102.3,250 -29.8,48.7 -23.7,132.3 29.4,153.2 173.3,68.3 322,-358 330,-472.9 6.2,146 19.4,237.9 25.6,383.9 1.9,44.5 16.3,102.6 60.8,104.9 17,0.9 33,-7.8 46.6,-17.9 84.3,-62.7 105.9,-178.3 114.2,-283.1 25.1,-319.7 -13.8,-640.7 -52.7,-959.2 -30.1,-246.2 -77.3,-676.78 -420.6,-653.01 -37.7,2.61 -74.8,11.87 -110.3,24.97 -59.4,21.91 -103.7,53.23 -136.6,91.34"
         style="fill:#f9bc8f;fill-opacity:1;fill-rule:nonzero;stroke:none"
         id="path192" /><path
         d="m 7695.54,11314.1 c -20.66,-25.4 -36.53,-55.8 -50,-85.8 -105.88,-235.4 -223.36,-454.1 -374.54,-665.6 -32.55,-45.6 -67.44,-93.3 -111.44,-127.8 -50.24,-39.5 -98.4,-40.8 -154.04,-59.9 -161.04,-55.5 -346.1,-73.4 -472.27,44.8 -57.52,53.9 -88.06,134.5 -96.15,217.9 -19.76,203.7 63.16,376.9 120.16,565.9 53.29,176.6 137.22,339 231.12,499.7 30.42,52.1 62.19,103.8 102.25,148.9 71.78,80.8 166.8,136.6 260.13,191 17.42,10.2 35.82,20.7 55.98,21.1 33.73,0.8 62.9,-28.5 70.6,-61.4 7.7,-32.8 -2.08,-67.5 -17.51,-97.5 62.95,25.8 123.38,56.4 185.55,83.7 43.86,19.2 98.37,37.4 136.27,8.1 34.17,-26.4 34.26,-81.2 10.49,-117.3 -23.76,-36.1 -64.55,-56.9 -104.85,-72.5 -40.3,-15.5 -82.72,-27.8 -117.79,-53 -36.08,-25.9 -61.65,-63.7 -84.83,-101.7 -34.09,-55.7 -71.15,-115.9 -92.62,-177.6 42.52,13.8 59.65,37.6 77.89,74.6 24.31,49.5 53.36,93.2 84.58,139 10.22,15 20.82,30.4 35.9,40.4 11.62,7.8 25.21,11.9 38.58,16 106.49,32.1 212.98,64.3 319.46,96.5 15.3,4.6 31.26,9.3 47.03,6.7 33.19,-5.5 53.89,-43.5 48.73,-76.8 -5.16,-33.2 -30.03,-60.5 -58.45,-78.4 -28.43,-18 -60.77,-28.6 -91.47,-42.3 -119.46,-53.4 -265.45,-185.4 -249.5,-328.5 25.41,46.7 48.25,94.4 80.32,138.1 20.66,28.1 44.48,55.7 76.53,69.6 29.84,12.9 63.51,12.4 96.01,11.6 72.18,-1.5 144.37,-3.1 216.55,-4.7 24.16,-0.5 50.46,-1.9 68.77,-17.6 29.02,-25 20.99,-75.5 -7.06,-101.6 -28.05,-26.1 -68.47,-33.4 -106.67,-36.5 -38.2,-3 -77.76,-3.1 -112.78,-18.6 -24.31,-10.8 -44.19,-28 -60.93,-48.5"
         style="fill:#f9bc8f;fill-opacity:1;fill-rule:nonzero;stroke:none"
         id="path194" /><path
         d="m 6610.83,10866.7 -384.51,-228.8 c 102.01,-56.6 364.37,-213.9 527.63,-416.7 153.99,100.3 303.26,201.1 303.26,201.1 l -446.38,444.4"
         style="fill:#f9bc8f;fill-opacity:1;fill-rule:nonzero;stroke:none"
         id="path196" /><path
         d="m 6226.32,10637.9 -238.79,-142.1 c 0,0 414.82,-453.4 433.36,-472.1 9.42,-9.5 173.76,93.7 333.06,197.5 -163.26,202.8 -425.62,360.1 -527.63,416.7"
         style="fill:#d39367;fill-opacity:1;fill-rule:nonzero;stroke:none"
         id="path198" /><path
         d="m 7077.23,7270.3 c -636.53,502 -1620.46,1141.19 -2257.28,1642.89 514.86,387.52 1677.41,1048.44 1839.29,1178.81 l -559.21,595.4 C 6085.14,10683.9 3370.85,9368.22 3207.68,8811.98 3086.46,8398.77 6080.42,5935.6 6270.24,6051.6 c 242.51,148.2 764.2,997.7 806.99,1218.7"
         style="fill:#1c75bc;fill-opacity:1;fill-rule:nonzero;stroke:none"
         id="path200" /><path
         d="m 8656.19,7381.9 138.53,-113.3 c 0,0 180.02,-743 -272.05,-1163.7 0,0 -393.55,239.2 -414.94,239.2 -21.39,0 -524.45,-296.1 -524.45,-296.1 0,0 -706.06,745.8 -549.19,1273.4 l 267.96,258.7 c 0,0 470.3,-885.6 809.66,-1056.7 0,0 352.83,217.3 544.48,858.5"
         style="fill:#47a7dd;fill-opacity:1;fill-rule:nonzero;stroke:none"
         id="path202" /><path
         d="m 9030.98,9082.01 c 34.4,45.15 81.72,72.81 140.51,63.2 147.34,-24.06 112.8,-269.39 59.2,-351.44 -57.72,-88.35 -173.29,-134.76 -238.73,-35.59 -47.12,71.48 -30.17,233.03 39.02,323.83"
         style="fill:#ffffff;fill-opacity:1;fill-rule:nonzero;stroke:none"
         id="path204" /><path
         d="m 7675.47,9343.96 c 36.38,50.41 86.41,81.29 148.56,70.57 155.78,-26.87 119.26,-300.74 62.59,-392.34 -61.01,-98.63 -183.21,-150.43 -252.4,-39.73 -49.82,79.8 -31.91,260.14 41.25,361.5"
         style="fill:#ffffff;fill-opacity:1;fill-rule:nonzero;stroke:none"
         id="path206" /><path
         d="m 8522.48,7986.9 c -3.21,-79.9 4.6,-376.6 -127.09,-377.6 -76.12,-0.5 -152.24,-1.1 -228.36,-1.7 -113.93,-0.8 -204,-5.3 -183.22,111.6 14.32,80.5 73.94,157.6 124.58,224.9 55.82,74.27 136.14,137.74 234.22,166.26 42.12,12.25 91.74,17.06 128.65,-4.08 43.21,-24.76 52.97,-75.14 51.22,-119.38"
         style="fill:#7f142b;fill-opacity:1;fill-rule:nonzero;stroke:none"
         id="path208" /><path
         d="m 8511.59,7797.6 c -11.57,10.2 -23.6,19.8 -36.12,28.4 -133.73,91.8 -279.19,101.7 -412.29,56.7 -36.29,-51.3 -69.22,-106.5 -79.37,-163.5 -20.78,-116.9 69.29,-112.4 183.22,-111.6 76.12,0.6 152.24,1.2 228.36,1.7 73.35,0.6 103.39,92.8 116.2,188.3"
         style="fill:#a52339;fill-opacity:1;fill-rule:nonzero;stroke:none"
         id="path210" /><path
         d="m 7253.57,11906.7 -148.23,-99.9 c 0,0 -117.64,-212.5 -129.03,-246.7 -4.71,-14.2 -60.41,17.3 1.27,130.2 26.14,47.9 49.47,106 92,140.1 77.19,62 166.79,64.2 183.99,76.3"
         style="fill:#d39367;fill-opacity:1;fill-rule:nonzero;stroke:none"
         id="path212" /><path
         d="m 7977.27,5909.2 c 4.54,1.7 221.5,-70.5 271.31,-7.8 l -14.62,-72 c 0,0 -138.45,32.1 -254.42,-1.5 0,0 -4.66,23 -2.27,81.3"
         style="fill:#7fadcc;fill-opacity:1;fill-rule:nonzero;stroke:none"
         id="path214" /><path
         d="m 10454.3,10610.4 c 2.2,-1.4 4.5,-2.3 7,-2.8 22,120.6 3.2,246 -27.8,363.1 -15.9,60 -42.1,145.9 -107.3,169.1 32.9,-87.9 76.7,-162.9 94.4,-257.3 9,-48.3 14.4,-97.2 18.2,-146.2 2.1,-27.9 0.6,-56.4 0.7,-84.5 0.1,-8.9 0.1,-18.1 3.2,-26.5 2.2,-6 6.3,-11.6 11.6,-14.9"
         style="fill:#d39367;fill-opacity:1;fill-rule:nonzero;stroke:none"
         id="path216" /><path
         d="m 10586.5,11162.2 c 56.9,-111.7 48.7,-260.1 51,-381.9 0.5,-30.5 1.4,-61.1 3.4,-91.5 0.5,-6.8 2.1,-15.1 8.6,-17.1 9.5,-3 15.4,10.2 16.4,20.1 17.1,160.8 11.6,335.6 -45.6,490.3 -29.8,80.7 -76.9,191 -169.1,204.1 4.7,-0.6 43,-65.2 48.7,-73.8 21.9,-32.5 39.9,-68.4 59.7,-102.2 9.3,-15.8 18.6,-31.7 26.9,-48"
         style="fill:#d39367;fill-opacity:1;fill-rule:nonzero;stroke:none"
         id="path218" /><path
         d="m 10829.1,10700.8 c 48.4,160.9 36.8,339.2 -32.1,492.5 -5.1,-37.6 -17.4,-80.8 -9.7,-117.9 8.4,-39.9 23.5,-78.3 29.5,-119.7 6.3,-42.7 9.2,-85.8 10.8,-128.9 1.3,-36.4 11.5,-91.1 1.5,-126"
         style="fill:#d39367;fill-opacity:1;fill-rule:nonzero;stroke:none"
         id="path220" /><path
         d="m 5369.77,1620.5 v -335.6 h 5396.73 v 335.6 H 5369.77"
         style="fill:#28292d;fill-opacity:1;fill-rule:nonzero;stroke:none"
         id="path222" /><path
         d="m 4337.34,4593.6 176.99,147.9 h 6938.17 l 314.8,-147.9 -259.5,-246.7 H 4666.28 l -328.94,246.7"
         style="fill:#d1d8e5;fill-opacity:1;fill-rule:nonzero;stroke:none"
         id="path224" /><path
         d="m 5102.54,2359.8 253.76,-740.7 h 5392 l 833.2,2432.3 -6478.96,-1691.6"
         style="fill:#9e9fa3;fill-opacity:1;fill-rule:nonzero;stroke:none"
         id="path226" /><path
         d="M 11767.3,4593.6 H 4337.34 l 27.48,-80.3 h 7374.98 l 27.5,80.3"
         style="fill:#ffffff;fill-opacity:1;fill-rule:nonzero;stroke:none"
         id="path228" /><path
         d="m 4364.82,4513.3 737.72,-2153.5 6478.96,1691.6 158.3,461.9 H 4364.82"
         style="fill:#b7b7b7;fill-opacity:1;fill-rule:nonzero;stroke:none"
         id="path230" /><path
         d="m 11296.8,4166.5 h -688.5 c -42.5,0 -65.6,39.3 -51.5,87.2 14.2,48 60.5,87.2 103,87.2 h 688.4 c 42.5,0 65.7,-39.2 51.5,-87.2 -14.2,-47.9 -60.5,-87.2 -102.9,-87.2"
         style="fill:#ffffff;fill-opacity:1;fill-rule:nonzero;stroke:none"
         id="path232" /><g
         id="g234"><g
           id="g236"
           clip-path="url(#clipPath240)"><path
             d="m 3301.85,1188.4 h 1200.01 v 267.898 H 3301.85 Z"
             style="fill:#604038;fill-opacity:1;fill-rule:nonzero;stroke:none"
             id="path242" /></g></g><path
         d="m 4022.76,2216.2 c 28.63,-3.4 60.8,-3.7 103.4,0.1 35.48,3.1 77.64,-8.1 89.73,-39.2 11.41,-29.3 -12.65,-72.9 11.7,-98.5 22.66,-23.8 70.55,-11.9 101.22,-10.8 7.71,0.3 15.64,0.5 22.91,-1.9 8.61,-2.8 15.35,-9 21.79,-15 15.94,-14.8 32.9,-31.7 34.03,-52.7 0.7,-12.9 -4.83,-25.3 -7.72,-37.9 -14.61,-63.9 54.36,-131 123.96,-120.7 11.37,-23.3 22.9,-47.2 25.47,-72.7 2.57,-25.4 -5.41,-53.3 -27.04,-69.2 -12.16,-8.9 -28.02,-13.8 -37.5,-25.2 -21,-25.2 1.78,-60.5 4.77,-92.2 4.15,-44 -40.12,-86.4 -87.73,-84.1 -13.66,0.7 -27.16,4.5 -40.79,3.5 -31.98,-2.5 -54.56,-29.9 -68.52,-56.7 -24.67,-47.2 -67.13,-121.5 -118.33,-147.9 -57.3,-29.6 -127.46,-0.9 -192.83,4.2 -120,9.3 -235.72,-64.9 -355.32,-34.7 -38.05,9.6 -59.13,23.7 -75,56.7 -7.89,16.3 -14.92,40.2 -16.71,57.9 -2.2,22 12.81,52.6 1.44,72.6 -8.98,15.7 -32.59,18.7 -51.17,14 -18.57,-4.6 -35.22,-14.8 -54.03,-18.6 -48.83,-9.8 -100.28,35.9 -91.69,81.5 -20.18,-7.9 -44.12,9.5 -47.08,29.6 -2.97,20.1 9.53,39.7 25.45,53.7 12.07,10.5 27.92,24.2 21.05,38.3 -2.3,4.7 -6.83,8 -11.16,11.2 -20.35,15.2 -41.76,37.4 -33.98,60.5 2.82,8.4 9.22,15.2 15.46,21.9 22.1,23.5 68.11,52 62.49,86.5 -44.08,6 -51.42,69.1 -19.9,98.3 31.52,29.1 80.4,32.8 124.89,34.7 -29.65,-1.3 -27.25,155.6 11.59,162 41.81,6.9 83.62,13.7 125.43,20.6 11.16,1.8 23,3.9 31.3,11.1 20.55,17.7 5.64,49.8 12.87,75 19.58,68 151.26,46.1 201.44,30.1 71.04,-22.6 111.62,-39.6 164.11,-46"
         style="fill:#ffffff;fill-opacity:1;fill-rule:nonzero;stroke:none"
         id="path244" /><path
         d="m 4308.28,1583.9 c 47.27,15.1 89.75,46 110.96,87.9 -41.88,-15.1 -83.77,-30.3 -125.65,-45.4 -19.1,-6.9 -40.82,-13.8 -59.43,-5.9 -10.24,4.4 -18.24,13 -29.07,15.9 -9.88,2.7 -20.41,0.3 -30.62,-1 -43.02,-5.4 -88.51,11.5 -115.63,42.9 -2.87,3.3 -5.68,7.1 -5.42,11.4 0.43,6.8 8.11,10.9 14.54,14.2 49.03,25.6 74.22,77.8 117.48,111.1 22.8,17.6 50.57,29.8 70.02,50.5 19.44,20.8 27.3,55.3 6.03,74.5 -2.59,-26 -21.17,-48.8 -44.03,-64.2 -22.86,-15.3 -49.84,-24.2 -76.41,-32.9 -30.7,-10.1 -62.65,-20.4 -95.06,-17.3 -12.97,1.2 -26.87,4.4 -38.47,-1.1 -14.81,-7.1 -18.7,-24.5 -24.61,-38.9 -18.25,-44.5 -73.38,-73 -123.82,-64.1 -11.63,2.1 -22.96,5.9 -34.78,6.5 -25.34,1.4 -48.83,-11.6 -73.82,-15.8 -51.78,-8.5 -101.72,21.8 -139.11,56 -15.75,14.5 -30.68,30.1 -49.49,40.9 -18.79,10.9 -42.72,16.5 -63.32,8.9 -34.11,12.8 -67.59,42.3 -70.11,76.3 -16.71,-26.6 -11.23,-61.5 5.7,-88 16.91,-26.6 43.57,-46.4 70.3,-64.8 30.82,-21.1 64.4,-41.8 102.6,-45.3 12.69,-1.2 30.71,-6 27.5,-17.4 -1.06,-3.8 -4.55,-6.6 -7.96,-8.9 -32.14,-21.9 -74.43,-27.7 -114.05,-23.6 -39.63,4.2 -77.41,17.3 -114.72,30.3 41.24,-58.2 120.64,-83.8 195.74,-87.7 45.89,-2.4 91.93,1.8 137.86,0.2 37.31,-1.4 74.33,-6.5 111.27,-11.6 5.14,-0.7 10.58,-1.5 14.54,-4.6 4.94,-4 6.35,-10.4 10.1,-15.3 15.03,-19.7 54.58,-3.9 71.55,-22.2 12.15,-13.1 4.69,-32.7 13.7,-46.9 9.86,-15.6 29.54,-22 47.39,-25.7 50.7,-10.6 103.28,4.4 154.46,-1.7 13.13,-1.5 27.72,-4.2 38.65,2.8 -23.48,12.5 -49.67,20.7 -76.55,23.8 -5.23,0.6 -10.6,1 -15.38,3.1 -3.77,1.6 -6.98,4.2 -9.88,7 -36.43,34.7 -22,88 31.26,84.6 64.78,-4.1 121.31,-19 185.74,1.5"
         style="fill:#d6d6d6;fill-opacity:1;fill-rule:nonzero;stroke:none"
         id="path246" /><path
         d="m 11827.9,646.102 c -21,0 -42,0.601 -63.2,2 -39.3,2.8 -61.1,6.8 -77.6,16.199 -8.1,4.601 -15.4,11.398 -17.2,16.5 -2.3,6.199 13.2,15 1.5,20.601 -6.8,3.297 -21.3,4.598 -36.2,4.598 -5.7,0 -11.4,-0.199 -16.8,-0.5 -19.2,-1.398 -36.4,-4.301 -55.9,-5.398 -4.7,-0.2 -9.4,-0.403 -14,-0.403 -45.8,0 -88.9,11.903 -80.8,23.703 -3.6,-0.402 -7.2,-0.601 -10.9,-0.601 -17.8,0 -35.3,4.199 -37.9,9 -3,5.699 9.9,11.301 26.4,15.301 12.5,3 28.8,6.898 21.7,10.898 -2.3,1.301 -7,2.301 -11.5,3.199 -21,4.301 -43.2,10.602 -35.2,17.203 3,2.399 9.6,4.399 16,6.2 22.9,6.699 70.5,14.898 64.7,24.699 -45.6,1.699 -53.2,19.699 -20.6,28 32.6,8.301 83.2,9.301 129.2,9.898 -0.1,0 -0.2,0 -0.4,0 -30.2,0 -27.6,44.301 12.4,46.102 43.3,2 86.5,3.898 129.8,5.902 11.5,0.496 23.8,1.098 32.3,3.098 21.3,5.101 5.9,14.199 13.4,21.398 10.6,10.203 53.3,13.301 98.9,13.301 41.2,0 84.8,-2.5 109.5,-4.699 73.5,-6.399 115.5,-11.301 169.8,-13.098 15,-0.504 30.9,-0.801 48.7,-0.801 17.4,0 36.5,0.297 58.2,0.801 4,0.098 8,0.195 12,0.195 33.7,0 69.7,-3.398 80.9,-11.296 11.8,-8.403 -13.1,-20.801 12.1,-28.102 11.5,-3.297 29.2,-4.199 48,-4.199 19.7,0 40.5,1 56.7,1.097 2.5,0 5,0.102 7.5,0.102 5.5,0 11,-0.102 16.2,-0.598 8.9,-0.8 15.9,-2.601 22.5,-4.3 16.5,-4.2 34.1,-9 35.2,-15 0.8,-3.7 -5,-7.2 -7.9,-10.801 -14.1,-16.903 46.8,-34.699 113.3,-34.699 5,0 9.9,0.101 14.9,0.296 11.8,-6.597 23.7,-13.398 26.3,-20.699 2.7,-7.199 -5.6,-15.199 -27.9,-19.699 -12.6,-2.5 -29,-3.898 -38.8,-7.199 -21.7,-7.199 1.8,-17.199 4.9,-26.301 4.2,-12.098 -39.1,-23.898 -86.8,-23.898 -1.3,0 -2.6,0 -4,0 -12.4,0.199 -24.7,1 -37.1,1 -1.7,0 -3.4,0 -5.1,0 -33,-0.704 -56.4,-8.5 -70.8,-16.2 -25.6,-13.402 -69.5,-34.601 -122.5,-42.101 -19.6,-2.801 -40.6,-3.699 -62.5,-3.699 -44.2,0 -91.7,3.898 -137,4.898 -7.4,0.199 -14.8,0.199 -22.2,0.199 -47.6,0 -94.5,-3 -141.4,-6.097 -46.9,-3 -93.7,-6 -140.8,-6"
         style="fill:#604038;fill-opacity:1;fill-rule:nonzero;stroke:none"
         id="path248" /><path
         d="m 12199.5,1762.3 c 31.2,-3.7 66.4,-4 112.9,0.1 38.7,3.4 84.8,-8.8 98,-42.5 12.4,-31.8 -13.9,-79.2 12.7,-107 24.8,-25.8 77.1,-12.9 110.5,-11.8 8.5,0.3 17.1,0.6 25.1,-2 9.4,-3 16.7,-9.8 23.8,-16.3 17.4,-16.1 35.9,-34.5 37.1,-57.2 0.8,-14 -5.3,-27.5 -8.4,-41.2 -16,-69.4 59.3,-142.3 135.3,-131.1 12.5,-25.4 25,-51.3 27.9,-78.9 2.8,-27.7 -6,-57.9 -29.6,-75.2 -13.3,-9.7 -30.6,-15 -40.9,-27.4 -23,-27.3 1.9,-65.7 5.2,-100.1 4.5,-47.8 -43.8,-93.899 -95.8,-91.298 -14.9,0.7 -29.7,4.797 -44.5,3.7 -35,-2.7 -59.6,-32.5 -74.9,-61.5 -26.9,-51.301 -73.3,-132 -129.2,-160.704 -62.5,-32.097 -139.1,-0.898 -210.5,4.504 -131.1,10.098 -257.4,-70.402 -388,-37.601 -41.6,10.402 -64.6,25.801 -81.9,61.5 -8.6,17.801 -16.3,43.801 -18.2,63 -2.5,23.801 13.9,57.101 1.5,78.801 -9.8,17.101 -35.6,20.3 -55.8,15.3 -20.3,-5.101 -38.5,-16.203 -59,-20.3 -53.4,-10.7 -109.5,39 -100.2,88.498 -22,-8.6 -48.1,10.3 -51.4,32.2 -3.2,21.8 10.4,43.1 27.8,58.3 13.2,11.5 30.5,26.3 23,41.5 -2.5,5.1 -7.5,8.8 -12.2,12.3 -22.2,16.5 -45.6,40.5 -37.1,65.6 3.1,9.1 10.1,16.6 16.9,23.8 24.1,25.6 74.4,56.5 68.2,94 -48.1,6.5 -56.1,75 -21.7,106.7 34.4,31.7 87.8,35.7 136.4,37.8 -32.4,-1.4 -29.8,169 12.6,175.9 45.7,7.5 91.3,14.9 137,22.4 12.2,1.9 25.1,4.3 34.2,12 22.4,19.3 6.1,54.1 14,81.4 21.4,73.9 165.2,50.2 220,32.8 77.5,-24.5 121.9,-43.1 179.2,-50"
         style="fill:#ffffff;fill-opacity:1;fill-rule:nonzero;stroke:none"
         id="path250" /><path
         d="m 12511.2,1075.6 c 51.7,16.4 98,49.9 121.2,95.5 -45.7,-16.5 -91.5,-32.9 -137.2,-49.4 -20.9,-7.5 -44.6,-15 -64.9,-6.3 -11.2,4.7 -19.9,14 -31.7,17.2 -10.8,2.9 -22.3,0.3 -33.5,-1.1 -47,-5.9 -96.6,12.5 -126.2,46.6 -3.2,3.6 -6.2,7.8 -6,12.4 0.5,7.4 8.9,11.8 15.9,15.5 53.6,27.7 81.1,84.4 128.3,120.6 24.9,19.1 55.2,32.3 76.5,54.9 21.2,22.5 29.8,60 6.5,80.8 -2.8,-28.2 -23.1,-53 -48,-69.6 -25,-16.7 -54.5,-26.4 -83.5,-35.9 -33.5,-10.9 -68.4,-22.1 -103.8,-18.8 -14.1,1.4 -29.3,4.8 -42,-1.1 -16.1,-7.7 -20.4,-26.6 -26.9,-42.3 -19.9,-48.2 -80.1,-79.2 -135.1,-69.6 -12.7,2.3 -25.1,6.4 -38,7.1 -27.7,1.5 -53.3,-12.6 -80.6,-17.1 -56.6,-9.4 -111.1,23.6 -151.9,60.8 -17.2,15.7 -33.5,32.6 -54.1,44.4 -20.5,11.8 -46.6,17.9 -69.1,9.6 -37.2,13.9 -73.8,46 -76.6,82.9 -18.2,-28.9 -12.2,-66.8 6.3,-95.6 18.4,-28.8 47.5,-50.4 76.7,-70.3 33.7,-23 70.3,-45.5 112.1,-49.3 13.8,-1.2 33.5,-6.5 30,-18.9 -1.2,-4.1 -5,-7.1 -8.7,-9.7 -35.1,-23.7 -81.3,-30 -124.5,-25.5 -43.3,4.5 -84.6,18.7 -125.3,32.9 45,-63.3 131.7,-91 213.7,-95.3 50.1,-2.6 100.4,1.9 150.6,0.2 40.7,-1.5 81.1,-7 121.5,-12.5 5.6,-0.8 11.5,-1.7 15.8,-5.1 5.4,-4.3 7,-11.3 11.1,-16.6 16.4,-21.4 59.6,-4.2 78.1,-24.1 13.3,-14.2 5.1,-35.498 15,-51.002 10.7,-16.898 32.2,-23.796 51.7,-27.898 55.4,-11.5 112.8,4.801 168.6,-1.801 14.4,-1.699 30.3,-4.5 42.3,3 -25.7,13.602 -54.3,22.5 -83.6,25.903 -5.7,0.601 -11.6,1.097 -16.8,3.398 -4.1,1.699 -7.6,4.5 -10.8,7.5 -39.8,37.8 -24,95.7 34.1,92 70.8,-4.5 132.5,-20.7 202.8,1.6"
         style="fill:#d6d6d6;fill-opacity:1;fill-rule:nonzero;stroke:none"
         id="path252" /><path
         d="m 13478.8,1097 c -14.5,0 -29,0.3 -42.6,1.4 -22.6,1.9 -42.2,6.6 -40.4,11.9 -4,0.2 -8.1,0.3 -12.2,0.3 -11.9,0 -24.1,-0.8 -36.2,-1.5 -12.1,-0.8 -24.1,-1.5 -35.8,-1.5 -6.1,0 -12.1,0.2 -18,0.7 -26.8,2.3 -34.5,9.6 -34.9,15.3 -0.1,2.9 17.2,18 31,18 0.1,0 0.2,0 0.3,0 -58.6,0.6 -119,2.6 -176.4,5.1 -6.1,0.3 -12.4,0.6 -17.1,1.5 -3.4,0.6 -5.6,1.6 -7.6,2.5 -18.7,8.3 -29.6,17.5 -31.7,26.8 -0.8,3.6 10.1,7.5 21.5,10 4.4,0.9 50.2,6.4 51.6,6.4 v 0 c 0.1,4.8 3.4,10.7 23.6,12.5 3.8,0.3 9.1,0.4 15,0.4 2.2,0 4.6,0 6.9,-0.1 2.4,0 4.8,0 7.2,0 17.3,0 32.7,0.6 22.7,6.4 -3.6,2.1 -11.5,3.8 -19.1,5.3 -10.8,2.2 -21.5,4.4 -32.2,6.6 -12,2.4 -24.2,4.9 -30.4,8.3 -12.2,6.4 13.8,10.9 27,16.1 16.5,6.5 31.6,13.2 47.3,19.8 3.1,1.3 6.3,2.6 11.5,3.5 4.7,0.7 9.9,1 15.4,1 6.3,0 13.1,-0.4 19.9,-0.7 6.9,-0.4 13.8,-0.7 20.6,-0.7 0.5,0 1,0 1.6,0 18.3,0.1 33.5,3.2 43.3,6.6 9.8,3.5 16.1,7.3 26.8,10.6 3.2,1 6.9,1.9 11.9,2.5 3.8,0.4 8.1,0.5 12.5,0.5 2.3,0 4.6,-0.1 6.8,-0.1 23.4,-0.3 48.6,-0.8 66.4,-4.2 5.2,-0.9 9.8,-2.2 16.1,-2.8 3.7,-0.3 7.7,-0.4 11.7,-0.4 3,0 6.1,0 9.1,0.1 26.8,0.5 62.6,2.7 95,2.7 21.3,0 41.2,-1 56.2,-3.9 5.6,-1.1 10.8,-2.5 16,-4.1 9.4,-2.9 18.6,-10.5 38.3,-10.8 0.3,0 0.6,0 0.9,0 19.8,0 51.5,10.5 65,13.6 4.3,1 8.8,2 14.6,2.5 3.9,0.3 8.1,0.3 12.2,0.3 0.7,0 1.5,0 2.2,0 23.8,0 47.7,-0.1 71.6,-0.1 -0.1,0 -0.1,0 -0.1,0 -2.3,0 23.1,-7.8 26.7,-8.4 11.2,-2 18.2,-3.2 29.1,-3.2 4.1,0 8.7,0.2 14.3,0.5 21,1.3 42,2.6 63.1,3.8 2.9,0.2 5.9,0.4 8.8,0.4 1.3,0 2.5,-0.1 3.7,-0.1 4.2,-0.3 7.4,-1 10.3,-1.7 38.4,-8.9 70,-20.2 83.5,-32.2 15.6,-13.9 -11.7,-24.1 -31.6,-37 23.9,-0.5 47.4,-2.2 68.3,-4.8 5.7,-0.7 11.5,-1.6 14.4,-2.9 2.9,-1.3 2.5,-2.8 2.6,-4.2 0.1,-4.2 4.2,-8.3 12.1,-12.1 3.1,-1.5 6.8,-3 6.3,-4.7 -0.6,-1.4 -4.4,-2.7 -8.2,-3.9 -32.8,-10.5 -55.7,-21.3 -97.4,-30.3 -34.5,-7.5 -93.6,-19.5 -146.1,-19.5 -33.8,0 -62.4,-4.1 -96,-4.3 -2.4,-0.1 -4.7,-0.1 -7.1,-0.1 -6.8,0 -13.7,0.1 -20.7,0.2 -6.8,0 -13.8,0.1 -20.6,0.1 -21.2,0 -41.9,-0.6 -59.4,-3.7 -12.8,-2.2 -21.1,-5.4 -32,-8.1 -38.5,-9.4 -102.3,-11 -160,-11.9 -9.6,-0.1 -19.4,-0.2 -29.1,-0.2"
         style="fill:#604038;fill-opacity:1;fill-rule:nonzero;stroke:none"
         id="path254" /><path
         d="m 13707.2,1982.3 c 4.2,-6.4 7.6,-13.7 10.7,-22.1 5.8,-15.1 5.8,-50.8 24.5,-57.3 18.7,-6.5 62.7,32.8 79.6,43.1 5.3,3.1 10.8,6.4 17,6.9 4.8,0.5 9.6,-0.8 14.3,-2.1 23,-6.4 46,-12.7 69,-19.1 -2.4,0.7 13.2,-40 15.9,-43.8 11.6,-15.9 17.5,-22.9 38.9,-22.7 21.8,0.2 43.6,0.4 65.4,0.6 4.2,0 8.7,0 12.4,-2.2 3.7,-2.2 6,-6.1 8,-9.9 26.7,-49.2 44.1,-106.7 43.1,-163 -1,-64.8 -39.3,-102.7 -73.7,-154.4 22.6,-8.3 43.4,-21.5 60.6,-38.5 4.6,-4.6 9.2,-9.8 10.5,-16.3 1.3,-6.4 -0.8,-12.9 -2.5,-19.2 -4.7,-18.3 -5.5,-37.6 -2.4,-56.2 1.3,-7.4 3.2,-15.1 0.7,-22.2 -2.2,-6.2 -7.4,-10.8 -12.5,-15.1 -44,-37.8 -78.7,-79.4 -129.4,-108.2 -42.1,-23.8 -113.2,-61.3 -163.9,-47.8 -32.7,8.7 -65.1,-2 -97.9,5.4 -35.2,7.9 -72,28.3 -108.2,12.6 -14.9,-6.5 -26.7,-18.4 -40.3,-27.4 -48.3,-31.7 -111.8,-22 -168.6,-11.2 -23.7,4.6 -48.2,9.5 -67.9,23.5 -19.7,13.9 -33.1,39.8 -25.2,62.6 -30.8,16.1 -73.1,-3.1 -101.1,17.5 -23.2,17 -22.2,50.9 -15.9,76.1 3.3,12.8 38.1,75.5 51.3,71.1 -56,17.4 -112.1,41.6 -164.6,67.6 -5.6,2.7 -11.3,5.7 -14.8,10.8 -2.6,3.8 -3.7,8.3 -4.5,12.8 -8.4,41.5 -8.1,84.8 0.7,126.2 3.4,15.7 18.4,30 32.3,38 5.5,3.2 57.6,15.7 57.4,14.9 5.7,21.1 15.7,46.2 37.4,48.8 19,2.4 62.5,-28.7 57.9,16.4 -1.1,10.3 -6.8,19.5 -12.3,28.3 -7.8,12.3 -15.7,24.7 -23.5,37 -8.7,13.8 -17.6,28.1 -19.8,44.2 -4.2,31.6 26.2,44.7 45,64 23.6,24.3 45.9,50 68.9,74.9 4.4,4.8 9,9.7 15.1,12.1 18.3,7.1 35.8,-12.2 55,-16.5 17.9,-4 36.2,5.7 49.7,18.2 13.5,12.5 24,28 38.2,39.6 4.2,3.5 8.9,6.7 14.3,7.7 6.5,1.2 13,-1 19.3,-3 22.2,-7.5 46,-16.1 59.3,-35.4 3.9,-5.7 6.8,-12.3 12.2,-16.5 5.5,-4.4 12.8,-5.7 19.7,-6.9 44.2,-7.3 117.1,-1.7 144.7,-43.9"
         style="fill:#ffffff;fill-opacity:1;fill-rule:nonzero;stroke:none"
         id="path256" /><path
         d="m 13394.8,1696.5 c 15.6,-24 38.3,-49.5 66.7,-46.4 9.4,1 18.2,5.3 27.5,7.1 28.3,5.6 56.1,-11.5 76.8,-31.5 20.7,-20 38.2,-44.1 63.2,-58.5 48.2,-27.9 108.8,-12.3 162.1,4 27.2,8.3 54.5,16.6 81.7,24.9 4,1.3 8.4,2.8 10.4,6.4 4.7,7.9 -5.3,17 -5.2,26.2 0.2,8.7 9.1,14.3 17.1,17.9 30.9,14.2 63.9,23.6 97.6,27.8 -35.7,-16.5 -44,-65.2 -75.5,-88.7 -16.2,-12 -36.7,-16 -55.6,-23.2 -75.4,-28.6 -123.3,-115.8 -107,-194.8 1.4,-7.2 3.6,-14.6 8.7,-19.9 6.3,-6.5 15.9,-8.3 23.9,-12.5 19.5,-9.9 29.5,-35.2 22.2,-55.8 -31,-2.3 -60.4,18.4 -75.7,45.5 -15.2,27 -18.6,59.2 -17.8,90.2 0.3,12.5 1.1,25.5 -3.5,37.2 -11.1,27.9 -46.1,35.3 -74,46.5 -58.4,23.6 -102,78.9 -163.4,92.9 -27.2,6.2 -59,5 -78.2,25.3 -8.1,8.6 -12.7,20 -20.4,29 -19.9,23.3 -55.5,25.1 -85.4,18.3 -29.9,-6.8 -58.5,-20.3 -89.2,-21.3 26.8,30.5 62.9,52.8 102.2,63 -19.6,25.5 -24.4,61.6 -12.1,91.3 12.3,29.7 41.2,51.9 73.1,56.1 -88.1,-11.6 13.1,-131.2 29.8,-157"
         style="fill:#d6d6d6;fill-opacity:1;fill-rule:nonzero;stroke:none"
         id="path258" /><path
         d="m 28965.7,1292.2 c -453,0 -820.3,118.4 -820.3,264.5 0,146 367.3,264.4 820.3,264.4 453,0 820.2,-118.4 820.2,-264.4 0,-146.1 -367.2,-264.5 -820.2,-264.5"
         style="fill:#6e4c43;fill-opacity:1;fill-rule:nonzero;stroke:none"
         id="path260" /><path
         d="m 29786,3252.6 -6.8,-99.8 -100.6,-1489.4 c -5,-74.4 -53.2,-139.6 -123.4,-164.6 -466,-165.2 -878.8,-167.6 -1256.6,-7.2 -66,28 -111,90.4 -115.8,161.8 l -101.8,1506.4 -6.8,101.8 c -4.6,67 26.4,131.6 82,169 175.2,117.6 532,169.8 774.2,171 246.6,1 590.2,-51.6 778.2,-183.4 53.2,-37.2 81.8,-100.8 77.4,-165.6"
         style="fill:#b7b7b7;fill-opacity:1;fill-rule:nonzero;stroke:none"
         id="path262" /><path
         d="m 30340.6,2821.9 c 14.7,458.7 -637.5,348 -637.5,348 l -6.1,-122.8 c 155.6,9.5 498.2,-1.7 488.2,-287 0,0 58.5,-519.2 -540.2,-763.9 l -8.1,-163 c 776.5,284.8 703.7,988.7 703.7,988.7"
         style="fill:#b7b7b7;fill-opacity:1;fill-rule:nonzero;stroke:none"
         id="path264" /><path
         d="m 29786,3252.6 -6.8,-99.8 c -169,-124.8 -484,-208.6 -844.4,-208.6 -367.6,0 -687.4,87 -853.8,215.6 l -6.8,101.8 c -4.6,67 26.4,131.6 82,169 175.2,117.6 532,169.8 774.2,171 246.6,1 590.2,-51.6 778.2,-183.4 53.2,-37.2 81.8,-100.8 77.4,-165.6"
         style="fill:#ffffff;fill-opacity:1;fill-rule:nonzero;stroke:none"
         id="path266" /><path
         d="m 28934.4,3037.7 c 401,0 740,93.4 851.7,222 1.9,62.4 -26.3,122.6 -77.6,158.6 -187.9,131.7 -531.6,184.2 -778.1,183.2 -242.1,-1 -599,-53.4 -774.2,-170.9 -53.3,-35.8 -83.5,-96.5 -82.1,-160.3 101.8,-134 448.3,-232.6 860.3,-232.6"
         style="fill:#e0e0e0;fill-opacity:1;fill-rule:nonzero;stroke:none"
         id="path268" /><path
         d="m 29636.9,3351.8 c 0,-94 -314.5,-170.1 -702.5,-170.1 -388,0 -702.5,76.1 -702.5,170.1 0,93.9 314.5,170.1 702.5,170.1 388,0 702.5,-76.2 702.5,-170.1"
         style="fill:#8a8b8e;fill-opacity:1;fill-rule:nonzero;stroke:none"
         id="path270" /><path
         d="m 21006.7,1620.5 v -335.6 h 5396.7 v 335.6 h -5396.7"
         style="fill:#28292d;fill-opacity:1;fill-rule:nonzero;stroke:none"
         id="path272" /><path
         d="m 19974.3,4593.6 177,147.9 h 6938.1 l 314.8,-147.9 -259.4,-246.7 h -6841.6 l -328.9,246.7"
         style="fill:#d1d8e5;fill-opacity:1;fill-rule:nonzero;stroke:none"
         id="path274" /><path
         d="m 20739.5,2359.8 253.8,-740.7 h 5392 l 833.2,2432.3 -6479,-1691.6"
         style="fill:#9e9fa3;fill-opacity:1;fill-rule:nonzero;stroke:none"
         id="path276" /><path
         d="m 27404.2,4593.6 h -7429.9 l 27.5,-80.3 h 7375 l 27.4,80.3"
         style="fill:#ffffff;fill-opacity:1;fill-rule:nonzero;stroke:none"
         id="path278" /><path
         d="m 20001.8,4513.3 737.7,-2153.5 6479,1691.6 158.3,461.9 h -7375"
         style="fill:#b7b7b7;fill-opacity:1;fill-rule:nonzero;stroke:none"
         id="path280" /><path
         d="m 26940.4,4166.5 h -688.5 c -42.4,0 -65.6,39.3 -51.4,87.2 14.1,48 60.4,87.2 102.9,87.2 h 688.5 c 42.4,0 65.6,-39.2 51.4,-87.2 -14.1,-47.9 -60.5,-87.2 -102.9,-87.2"
         style="fill:#ffffff;fill-opacity:1;fill-rule:nonzero;stroke:none"
         id="path282" /><path
         d="m 20630.9,2123.8 c -295.6,-356.5 -1131.2,-1436.398 -1134,-1436.398 -3.6,0 -3010.3,-4.703 -3010.3,-4.703 l 135.9,99.102 1839.9,1341.999 h 2168.5"
         style="fill:#ffffff;fill-opacity:1;fill-rule:nonzero;stroke:none"
         id="path284" /><path
         d="M 20460.8,2123.8 C 20108.9,1699.4 19347.4,781.801 19344.8,781.801 H 16622.5 L 18462.4,2123.8 h 1998.4"
         style="fill:#b7b7b7;fill-opacity:1;fill-rule:nonzero;stroke:none"
         id="path286" /><path
         d="M 18354.2,2255.7 16378.3,814.801 c 0,0 2942.7,0 2946.2,0 3,0 902.5,1084.499 1198.1,1440.899 h -2168.4"
         style="fill:#ffffff;fill-opacity:1;fill-rule:nonzero;stroke:none"
         id="path288" /><path
         d="m 18061.9,981.602 c -123.6,0 -246.8,0.199 -368.7,0.5 -5.4,0 -9.7,4.398 -9.7,9.796 0,5.403 4.4,9.702 9.7,9.702 h 0.1 c 212.2,-0.6 428.7,-0.7 643.5,-0.3 v 0 c 5.3,0 9.7,-4.3 9.7,-9.698 0,-5.301 -4.3,-9.704 -9.7,-9.704 -91.5,-0.195 -183.3,-0.296 -274.9,-0.296"
         style="fill:#6d6e70;fill-opacity:1;fill-rule:nonzero;stroke:none"
         id="path290" /><path
         d="m 18170.7,1134.1 c -343.9,0 -690.6,0.5 -1037.6,1.5 -5.4,0 -9.8,4.4 -9.7,9.8 0,5.3 4.3,9.7 9.7,9.7 v 0 c 726.4,-2.1 1450.8,-2 2152.9,0.3 v 0 c 5.4,0 9.7,-4.4 9.8,-9.7 0,-5.4 -4.4,-9.8 -9.7,-9.8 -366.7,-1.2 -739.5,-1.8 -1115.4,-1.8"
         style="fill:#6d6e70;fill-opacity:1;fill-rule:nonzero;stroke:none"
         id="path292" /><path
         d="m 18305,1269.6 c -328.3,0 -660.2,1.3 -993.8,3.8 -5.4,0.1 -9.7,4.5 -9.7,9.8 0.1,5.4 4.4,9.7 9.8,9.7 v 0 c 712.1,-5.5 1416.6,-5.1 2094.1,1.1 h 0.1 c 5.3,0 9.7,-4.3 9.7,-9.7 0.1,-5.4 -4.3,-9.7 -9.6,-9.8 -360.2,-3.3 -728.1,-4.9 -1100.6,-4.9"
         style="fill:#6d6e70;fill-opacity:1;fill-rule:nonzero;stroke:none"
         id="path294" /><path
         d="m 19566,1413.1 h -0.1 c -274.5,3.6 -557.9,5.8 -842.4,6.6 -5.4,0 -9.8,4.4 -9.7,9.8 0,5.3 4.3,9.7 9.7,9.7 v 0 c 284.6,-0.8 568.1,-3 842.6,-6.6 5.4,-0.1 9.7,-4.5 9.6,-9.9 0,-5.3 -4.4,-9.6 -9.7,-9.6"
         style="fill:#6d6e70;fill-opacity:1;fill-rule:nonzero;stroke:none"
         id="path296" /><path
         d="m 19715.3,1551.7 h -0.1 c -638.3,4.6 -1318.7,5.1 -2022.2,1.4 h -0.1 c -5.3,0 -9.7,4.3 -9.7,9.7 0,5.4 4.3,9.7 9.7,9.8 703.6,3.7 1384,3.2 2022.4,-1.4 5.4,-0.1 9.7,-4.5 9.7,-9.9 -0.1,-5.3 -4.4,-9.6 -9.7,-9.6"
         style="fill:#6d6e70;fill-opacity:1;fill-rule:nonzero;stroke:none"
         id="path298" /><path
         d="m 19841.8,1690.3 v 0 c -601.1,0.8 -1259.4,0.9 -1956.5,0.3 -5.4,0 -9.7,4.3 -9.7,9.7 -0.1,5.4 4.3,9.8 9.7,9.8 697.1,0.6 1355.4,0.5 1956.5,-0.4 5.4,0 9.7,-4.3 9.7,-9.7 0,-5.4 -4.3,-9.7 -9.7,-9.7"
         style="fill:#6d6e70;fill-opacity:1;fill-rule:nonzero;stroke:none"
         id="path300" /><path
         d="m 18889.2,1826.4 c -56.9,0 -114,0 -171.4,0 -5.4,0 -9.7,4.4 -9.7,9.8 0,5.3 4.3,9.7 9.7,9.7 418.5,-0.3 827.6,0.5 1216.2,2.2 h 0.1 c 5.3,0 9.7,-4.3 9.7,-9.7 0,-5.3 -4.3,-9.7 -9.7,-9.7 -335.3,-1.6 -686.1,-2.3 -1044.9,-2.3"
         style="fill:#6d6e70;fill-opacity:1;fill-rule:nonzero;stroke:none"
         id="path302" /><path
         d="m 19046.3,1961.7 c -253.8,0 -518.8,0.9 -801.3,2.7 -5.4,0 -9.7,4.4 -9.7,9.8 0,5.4 4.4,9.7 9.7,9.7 h 0.1 c 678.1,-4.4 1255.8,-3.5 1818.2,2.6 h 0.1 c 5.3,0 9.6,-4.2 9.7,-9.6 0.1,-5.4 -4.2,-9.8 -9.6,-9.8 -328.2,-3.6 -661.7,-5.4 -1017.2,-5.4"
         style="fill:#6d6e70;fill-opacity:1;fill-rule:nonzero;stroke:none"
         id="path304" /><path
         d="m 20233.3,2106.2 h -0.2 c -323.2,4.3 -663,6.6 -1010,6.7 -5.3,0 -9.7,4.3 -9.7,9.7 0,5.3 4.4,9.7 9.7,9.7 347.1,-0.1 687,-2.3 1010.3,-6.6 5.4,-0.1 9.7,-4.5 9.6,-9.9 -0.1,-5.3 -4.4,-9.6 -9.7,-9.6"
         style="fill:#6d6e70;fill-opacity:1;fill-rule:nonzero;stroke:none"
         id="path306" /></g></g></svg>
