<?xml version="1.0" standalone="no"?>
<!DOCTYPE svg PUBLIC "-//W3C//DTD SVG 20010904//EN"
 "http://www.w3.org/TR/2001/REC-SVG-20010904/DTD/svg10.dtd">
<svg version="1.0" xmlns="http://www.w3.org/2000/svg"
 width="2560.000000pt" height="2560.000000pt" viewBox="0 0 2560.000000 2560.000000"
 preserveAspectRatio="xMidYMid meet">

<g transform="translate(0.000000,2560.000000) scale(0.100000,-0.100000)"
fill="#000000" stroke="none">
<path d="M12590 22911 c-115 -26 -187 -52 -286 -105 -252 -134 -434 -363 -519
-651 -38 -129 -45 -329 -17 -470 57 -284 211 -516 451 -677 71 -49 214 -117
274 -132 l27 -6 0 -6943 c0 -6259 1 -6948 16 -6989 21 -62 74 -121 136 -152
68 -34 176 -36 242 -5 60 28 114 82 142 143 l24 51 0 6946 0 6947 53 17 c140
45 294 141 407 254 186 185 294 428 307 692 25 502 -301 940 -797 1071 -112
30 -347 34 -460 9z"/>
<path d="M9714 21186 c-366 -70 -664 -323 -798 -678 -110 -293 -73 -642 97
-913 185 -296 497 -477 847 -492 276 -12 547 83 737 258 45 41 53 45 68 30 9
-8 173 -104 358 -208 l77 -44 0 -1256 c0 -1144 -1 -1255 -16 -1249 -9 3 -107
59 -217 123 -111 64 -285 164 -387 223 -869 501 -1050 607 -1084 637 -22 18
-65 42 -95 54 -31 11 -85 37 -121 58 -133 79 -312 182 -545 316 -342 196 -478
276 -491 286 -8 6 -7 27 3 71 21 93 20 296 -2 398 -86 419 -385 724 -810 828
-101 24 -342 24 -450 -2 -647 -151 -997 -839 -736 -1447 51 -118 119 -217 220
-319 100 -101 177 -155 305 -215 371 -173 818 -110 1126 157 27 25 51 37 62
35 10 -3 156 -85 326 -183 169 -97 352 -203 407 -235 55 -32 108 -64 118 -71
17 -12 -32 -63 -528 -558 -300 -300 -549 -546 -554 -548 -5 -2 -31 8 -58 21
-125 63 -312 107 -455 107 -463 0 -877 -307 -1012 -750 -174 -572 164 -1168
749 -1326 87 -23 120 -27 250 -27 168 -1 240 12 383 66 141 53 243 119 357
232 135 133 207 246 264 412 88 259 73 531 -42 785 l-35 75 602 602 c330 330
605 601 610 601 4 0 49 -24 99 -54 51 -29 193 -112 317 -183 124 -71 299 -172
390 -225 91 -52 311 -180 490 -283 179 -103 377 -218 440 -254 l115 -67 0
-1504 0 -1505 -1483 0 -1483 0 -23 65 c-75 214 -240 421 -431 539 -445 278
-1021 190 -1361 -207 -123 -143 -195 -292 -234 -483 -38 -180 -18 -406 49
-577 101 -256 306 -474 548 -583 382 -171 832 -102 1142 177 119 107 247 302
295 449 l16 50 1280 0 1280 0 -784 -784 -783 -783 -69 32 c-520 243 -1132 29
-1389 -484 -150 -298 -150 -645 -2 -941 100 -200 293 -390 491 -480 292 -134
614 -136 893 -5 532 249 761 879 511 1408 -17 35 -28 65 -27 67 7 8 1400 1401
1484 1485 l86 85 -3 -2510 -3 -2510 21 -46 c31 -65 78 -114 139 -145 48 -23
64 -26 132 -22 47 2 92 11 115 22 48 23 103 77 131 129 l22 42 0 6210 c0 5786
-1 6212 -17 6245 -34 72 -89 117 -259 214 -262 149 -433 248 -442 256 -5 4 -1
63 8 131 15 105 16 137 6 230 -16 149 -43 247 -100 364 -117 240 -321 431
-557 521 -139 53 -201 65 -359 69 -100 3 -173 0 -221 -9z"/>
<path d="M15545 21193 c-61 -9 -184 -44 -254 -72 -437 -178 -706 -650 -637
-1120 9 -62 16 -115 14 -116 -6 -5 -224 -132 -418 -244 -213 -122 -267 -167
-294 -248 -15 -42 -16 -592 -16 -6233 l0 -6187 31 -61 c21 -44 44 -71 77 -95
68 -48 95 -57 173 -57 87 0 162 32 213 92 72 83 66 -141 66 2637 l0 2506 785
-785 786 -786 -36 -77 c-19 -42 -48 -120 -62 -174 -25 -88 -28 -114 -28 -263
0 -141 4 -178 24 -254 81 -311 277 -554 556 -692 363 -179 783 -140 1102 102
616 469 539 1416 -145 1772 -299 155 -627 163 -937 23 -43 -20 -72 -28 -79
-22 -20 16 -1556 1550 -1556 1553 0 6 2552 -2 2561 -8 5 -3 9 -12 9 -19 0 -29
78 -194 125 -266 365 -548 1126 -635 1606 -182 431 407 438 1089 14 1508 -136
135 -284 220 -475 273 -86 24 -112 27 -265 27 -155 0 -179 -3 -270 -28 -238
-66 -433 -199 -580 -399 -50 -67 -126 -212 -150 -285 l-17 -53 -1484 0 -1484
0 0 1508 1 1507 391 225 c215 124 484 279 597 344 827 478 859 496 868 496 5
0 279 -271 609 -601 l602 -602 -34 -71 c-184 -389 -113 -852 180 -1163 161
-171 330 -268 556 -319 116 -27 339 -24 455 6 194 49 341 130 480 262 152 145
249 308 302 506 23 85 26 117 26 257 0 142 -3 172 -26 260 -31 114 -106 275
-166 355 -221 295 -558 456 -910 437 -127 -7 -268 -41 -376 -91 -43 -20 -81
-36 -86 -36 -4 0 -254 246 -555 546 -456 456 -544 548 -533 559 8 7 136 82
284 168 149 85 337 194 419 241 82 47 152 86 157 86 5 0 46 -29 91 -65 283
-224 654 -287 997 -170 209 71 412 229 535 415 89 135 148 300 168 473 35 297
-81 625 -297 842 -94 94 -180 154 -306 215 -130 61 -241 89 -390 97 -302 15
-582 -92 -797 -306 -225 -224 -337 -540 -301 -848 20 -179 34 -152 -126 -245
-233 -135 -244 -142 -415 -240 -91 -52 -256 -147 -367 -211 -111 -65 -208
-117 -215 -117 -14 0 -70 -34 -170 -101 -29 -20 -246 -148 -482 -284 -236
-136 -488 -281 -560 -322 -282 -163 -454 -262 -522 -302 -39 -22 -74 -41 -78
-41 -3 0 -6 564 -6 1254 l0 1255 78 44 c165 93 348 200 359 209 9 8 32 -5 81
-45 191 -157 389 -233 632 -244 298 -13 565 90 781 302 296 291 392 722 248
1113 -124 340 -440 604 -798 668 -70 12 -267 16 -336 7z"/>
<path d="M12312 4478 l3 -1123 127 -3 127 -3 3 588 3 588 26 56 c54 115 161
184 285 183 80 -1 130 -22 151 -65 10 -18 13 -180 13 -686 l0 -663 130 0 131
0 -3 698 c-3 688 -3 698 -24 743 -12 26 -38 64 -57 86 -117 129 -415 160 -612
64 l-40 -19 -3 339 -2 339 -130 0 -130 0 2 -1122z"/>
<path d="M19312 4478 l3 -1123 128 -3 127 -3 0 1126 0 1125 -130 0 -130 0 2
-1122z"/>
<path d="M19900 4475 l0 -1125 130 0 130 0 0 1125 0 1125 -130 0 -130 0 0
-1125z"/>
<path d="M10290 4405 l0 -1045 380 0 380 0 0 110 0 110 -251 0 -250 0 3 283 3
282 34 63 c60 110 165 180 287 190 l64 5 0 108 0 109 -195 0 -195 0 0 305 0
305 250 0 250 0 0 110 0 110 -380 0 -380 0 0 -1045z"/>
<path d="M18254 5421 c-21 -13 -61 -69 -123 -171 -102 -168 -96 -148 -116
-405 -3 -44 -19 -222 -35 -395 -16 -173 -32 -349 -35 -390 -3 -41 -17 -192
-30 -335 -14 -143 -27 -286 -30 -317 l-5 -58 145 0 c144 0 145 0 146 23 0 12
2 42 4 67 2 25 9 115 14 200 6 85 14 179 17 208 l5 52 260 0 c240 0 259 -1
259 -17 0 -10 9 -133 20 -273 11 -140 20 -256 20 -257 0 -7 279 -2 283 5 2 4
-6 113 -18 242 -12 129 -25 273 -29 320 -4 47 -18 200 -31 340 -13 140 -27
291 -30 335 -15 202 -48 501 -57 520 -6 11 -49 82 -96 158 -56 90 -96 144
-114 153 -20 11 -71 14 -210 14 -162 0 -187 -2 -214 -19z m241 -209 c10 -7
134 -174 150 -200 4 -8 9 -48 12 -90 2 -42 17 -240 32 -440 l27 -363 -214 3
-214 3 -29 32 c-33 38 -34 -18 6 532 21 283 26 326 43 345 10 11 45 58 76 104
56 81 80 97 111 74z"/>
<path d="M5450 4455 c0 -788 2 -972 14 -998 17 -42 76 -93 124 -107 60 -18
521 -8 594 13 133 38 220 101 259 189 l24 53 0 780 0 780 -23 47 c-27 53 -92
117 -149 146 -102 53 -126 55 -495 60 l-348 4 0 -967z m627 724 c60 -29 110
-90 123 -153 8 -35 10 -253 8 -707 l-3 -656 -27 -35 c-45 -59 -77 -68 -238
-68 -105 0 -148 4 -170 15 -63 33 -60 -14 -60 808 l0 749 34 34 34 34 128 0
c109 0 134 -3 171 -21z"/>
<path d="M17229 5395 c-21 -11 -45 -59 -124 -247 -53 -128 -132 -316 -175
-418 -243 -574 -260 -618 -260 -671 0 -62 23 -105 63 -119 18 -6 154 -10 343
-10 312 0 313 0 328 -22 14 -19 16 -64 16 -285 l0 -263 125 0 125 0 0 994 0
995 -24 28 -24 28 -184 2 c-141 1 -189 -1 -209 -12z m191 -627 c0 -227 -4
-430 -9 -451 -13 -55 -58 -115 -105 -140 -35 -19 -61 -22 -188 -25 -91 -2
-148 0 -148 6 0 5 12 36 26 68 14 33 61 142 104 244 42 102 121 289 175 415
53 127 103 245 110 263 32 74 35 37 35 -380z"/>
<path d="M8193 5165 c1 -113 0 -205 -3 -206 -3 0 -45 -1 -95 -2 l-90 -2 0
-110 0 -110 95 -3 95 -3 0 -562 c0 -442 3 -570 13 -600 21 -59 102 -140 171
-171 81 -36 192 -56 312 -56 l99 0 0 110 0 110 -77 0 c-92 0 -162 28 -207 81
-56 66 -56 64 -56 514 0 453 -1 444 59 508 38 42 89 65 151 69 l55 3 0 110 0
110 -130 2 -130 2 -3 206 -2 205 -129 0 -129 0 1 -205z"/>
<path d="M11468 5164 l-3 -206 -90 -2 -90 -1 -3 -113 -3 -113 95 3 95 3 3
-580 c3 -573 3 -580 25 -620 42 -78 128 -139 238 -170 34 -9 119 -19 198 -22
l137 -6 0 112 0 111 -74 0 c-117 0 -189 36 -242 120 l-29 45 0 430 0 430 28
42 c41 64 96 96 173 101 l64 4 0 114 0 113 -132 0 -133 0 -3 205 -2 206 -125
0 -125 0 -2 -206z"/>
<path d="M13730 5331 c-66 -35 -92 -120 -57 -188 22 -42 96 -77 144 -70 71 12
123 71 123 141 0 104 -115 168 -210 117z"/>
<path d="M14637 4999 c-132 -17 -234 -63 -296 -135 -69 -78 -66 -47 -66 -689
0 -637 -2 -612 63 -693 64 -80 163 -123 332 -142 176 -21 365 13 464 84 88 62
126 136 126 242 l0 64 -130 0 -130 0 1 -43 c1 -23 -3 -52 -9 -63 -37 -69 -272
-95 -389 -44 -80 35 -78 17 -78 590 0 577 -3 554 83 593 38 17 67 21 157 21
124 0 169 -11 209 -53 21 -22 28 -40 30 -73 l1 -43 128 -3 127 -3 0 64 c0 189
-124 296 -380 327 -96 11 -146 11 -243 -1z"/>
<path d="M15851 4999 c-190 -24 -315 -101 -357 -216 -16 -46 -18 -232 -3 -300
20 -92 60 -132 430 -420 301 -233 294 -225 294 -338 0 -57 -4 -76 -22 -101
-38 -54 -82 -68 -213 -68 -98 0 -123 3 -167 23 -56 25 -73 52 -73 117 l0 34
-130 0 -130 0 0 -61 c0 -86 17 -133 68 -190 91 -102 208 -141 422 -142 201 -1
333 38 418 123 65 65 76 99 80 232 4 139 -9 213 -48 266 -28 39 -155 145 -392
329 -283 220 -290 228 -291 334 -1 105 31 139 153 161 81 14 197 2 252 -25 49
-25 68 -55 68 -109 l0 -38 130 0 130 0 0 63 c0 148 -88 255 -249 303 -103 30
-248 39 -370 23z"/>
<path d="M7165 4976 c-115 -19 -189 -52 -250 -111 -60 -58 -85 -119 -85 -207
l0 -58 124 0 124 0 7 47 c10 70 43 98 135 113 93 16 221 7 263 -17 60 -36 67
-55 70 -201 1 -72 0 -132 -2 -132 -3 0 -32 11 -66 25 -207 82 -492 38 -592
-93 -60 -79 -64 -114 -61 -459 3 -280 5 -312 22 -348 53 -108 136 -164 287
-191 109 -20 208 -12 322 27 97 32 97 32 96 22 -5 -31 3 -33 126 -33 l126 0
-3 693 c-3 652 -4 694 -22 729 -43 87 -138 154 -258 183 -92 22 -268 27 -363
11z m188 -746 c75 -28 130 -79 167 -154 30 -60 31 -70 31 -179 0 -96 -3 -123
-21 -166 -26 -59 -83 -114 -149 -145 -61 -28 -200 -30 -248 -3 -49 26 -55 63
-51 345 3 274 6 285 71 309 51 18 140 15 200 -7z"/>
<path d="M9355 4980 c-184 -29 -300 -103 -341 -217 -7 -21 -13 -66 -14 -100
l0 -63 128 0 128 0 2 43 c5 93 58 120 237 121 103 1 125 -2 154 -19 67 -40 76
-62 79 -206 2 -77 0 -129 -6 -129 -5 0 -30 9 -56 20 -77 35 -190 52 -289 45
-170 -12 -281 -68 -341 -175 l-31 -55 0 -336 0 -335 30 -59 c52 -101 151 -157
315 -177 101 -12 218 4 318 45 l62 25 0 -24 0 -24 125 0 126 0 -3 693 c-3 688
-3 692 -25 732 -26 49 -96 116 -152 144 -22 12 -69 28 -103 36 -80 19 -265 27
-343 15z m185 -755 c71 -36 126 -92 156 -157 26 -57 28 -73 29 -173 0 -94 -4
-118 -24 -162 -27 -61 -76 -109 -146 -144 -64 -31 -200 -35 -252 -6 -49 26
-55 63 -51 345 3 273 5 280 68 307 47 20 172 15 220 -10z"/>
<path d="M13670 4150 l0 -810 130 0 130 0 -2 808 -3 807 -127 3 -128 3 0 -811z"/>
</g>
</svg>
